<svg width="25" height="25" viewBox="0 0 25 25" fill="none" xmlns="http://www.w3.org/2000/svg">
<rect width="25" height="25" rx="4.68203" fill="#F89D16"/>
<path d="M20.2789 5.83307H4.71924C4.57253 5.83324 4.43188 5.89157 4.32817 5.99526C4.22445 6.09894 4.16613 6.23951 4.16602 6.38612V7.4987C4.16602 7.54996 4.22164 7.60879 4.26709 7.63258L12.4456 12.3007C12.4665 12.3127 12.4903 12.3189 12.5144 12.3187C12.5391 12.3187 12.5633 12.3122 12.5845 12.2996L20.5159 7.63713C20.5605 7.61225 20.6786 7.5465 20.723 7.51622C20.7767 7.47967 20.8321 7.44658 20.8321 7.38104V6.3859C20.8319 6.23933 20.7736 6.09882 20.6699 5.99518C20.5662 5.89154 20.4255 5.83324 20.2789 5.83307Z" fill="#1A1A1A"/>
<path d="M20.7638 9.17662C20.7425 9.16449 20.7184 9.15818 20.6939 9.15833C20.6694 9.15848 20.6454 9.16509 20.6242 9.17748L16.1358 11.8164C16.118 11.8268 16.1026 11.8411 16.0911 11.8582C16.0795 11.8753 16.0719 11.8949 16.0689 11.9153C16.0658 11.9358 16.0675 11.9567 16.0736 11.9764C16.0798 11.9962 16.0903 12.0143 16.1045 12.0294L20.5935 16.8649C20.6063 16.8788 20.622 16.89 20.6394 16.8975C20.6568 16.9051 20.6756 16.909 20.6946 16.909C20.7312 16.9089 20.7664 16.8943 20.7923 16.8684C20.8182 16.8425 20.8328 16.8074 20.8329 16.7708V9.29666C20.833 9.27234 20.8266 9.24844 20.8145 9.22736C20.8024 9.20628 20.7849 9.18878 20.7638 9.17662Z" fill="#1A1A1A"/>
<path d="M14.8417 12.7028C14.8204 12.6796 14.7918 12.6644 14.7606 12.6598C14.7295 12.6551 14.6977 12.6613 14.6705 12.6773L12.8714 13.7351C12.766 13.796 12.6466 13.8284 12.5249 13.8292C12.4031 13.83 12.2833 13.7991 12.1771 13.7396L10.5938 12.8358C10.5683 12.8213 10.5387 12.8152 10.5095 12.8186C10.4803 12.8219 10.4529 12.8345 10.4313 12.8544L4.41892 18.4271C4.40316 18.4419 4.39106 18.4601 4.38358 18.4803C4.37611 18.5005 4.37346 18.5222 4.37586 18.5436C4.37825 18.5651 4.38563 18.5856 4.39739 18.6037C4.40915 18.6218 4.42497 18.6369 4.4436 18.6477C4.5371 18.7027 4.62736 18.7288 4.71913 18.7288H20.1197C20.1466 18.7289 20.173 18.721 20.1955 18.7062C20.218 18.6914 20.2357 18.6703 20.2463 18.6456C20.2571 18.621 20.2604 18.5937 20.2559 18.5672C20.2514 18.5408 20.2391 18.5162 20.2208 18.4966L14.8417 12.7028Z" fill="#1A1A1A"/>
<path d="M9.10876 12.1945C9.12468 12.1798 9.13692 12.1615 9.14449 12.1412C9.15205 12.1209 9.15473 12.0991 9.15231 12.0776C9.14989 12.056 9.14243 12.0354 9.13054 12.0172C9.11865 11.9991 9.10266 11.984 9.08387 11.9732L4.37278 9.28429C4.35175 9.27236 4.32796 9.26616 4.30378 9.2663C4.27961 9.26644 4.25589 9.27292 4.23501 9.2851C4.21413 9.29727 4.19681 9.31471 4.18479 9.33568C4.17276 9.35664 4.16646 9.38039 4.16651 9.40455V16.4599C4.16635 16.4869 4.17411 16.5133 4.18882 16.5359C4.20353 16.5585 4.22454 16.5762 4.24926 16.587C4.27397 16.5978 4.30131 16.6011 4.32788 16.5965C4.35445 16.5919 4.37909 16.5796 4.39875 16.5612L9.10876 12.1945Z" fill="#1A1A1A"/>
</svg>
