<svg width="26" height="25" viewBox="0 0 26 25" fill="none" xmlns="http://www.w3.org/2000/svg">
<path fill-rule="evenodd" clip-rule="evenodd" d="M25.0879 12.5C25.0879 19.4031 19.491 25 12.5879 25C5.68477 25 0.0878906 19.4031 0.0878906 12.5C0.0878906 5.59687 5.68477 0 12.5879 0C19.491 0 25.0879 5.59687 25.0879 12.5ZM13.0358 9.22812C11.8202 9.73333 9.38997 10.7802 5.74622 12.3677C5.15456 12.6031 4.84414 12.8333 4.81602 13.0583C4.7681 13.4396 5.24518 13.5896 5.8931 13.7927C5.98164 13.8208 6.07331 13.849 6.16706 13.8802C6.8056 14.0875 7.66393 14.3302 8.10977 14.3396C8.51497 14.3479 8.96706 14.1812 9.46602 13.8396C12.8702 11.5406 14.6275 10.3792 14.7379 10.3542C14.816 10.3365 14.9243 10.3135 14.9973 10.3792C15.0702 10.4437 15.0629 10.5667 15.0556 10.6C15.0077 10.801 13.1389 12.5396 12.1702 13.4396C11.8681 13.7198 11.6546 13.9187 11.6108 13.9646C11.5129 14.0656 11.4129 14.1625 11.3171 14.2552C10.7233 14.826 10.2796 15.2552 11.3421 15.9552C11.8525 16.2917 12.2608 16.5698 12.6681 16.8469C13.1129 17.15 13.5566 17.4521 14.1316 17.8292C14.2775 17.925 14.4171 18.024 14.5535 18.1208C15.0712 18.4906 15.5368 18.8219 16.1118 18.7698C16.4452 18.7385 16.791 18.425 16.966 17.4885C17.3796 15.274 18.1941 10.4781 18.3827 8.50104C18.3942 8.33689 18.3872 8.17197 18.3618 8.00937C18.3467 7.87805 18.2827 7.75722 18.1827 7.67083C18.0337 7.54896 17.8025 7.52292 17.6983 7.525C17.2285 7.53333 16.5077 7.78437 13.0358 9.22812Z" fill="#F89D16"/>
</svg>
