<svg width="25" height="25" viewBox="0 0 25 25" fill="none" xmlns="http://www.w3.org/2000/svg">
<circle cx="12.5" cy="12.5" r="12.5" fill="#F89D16"/>
<path d="M12.5 21C11.3271 20.0425 10.24 18.9928 9.24999 17.8619C7.76428 16.1636 6 13.6343 6 11.2241C5.99936 9.99322 6.38026 8.7898 7.0945 7.76616C7.80874 6.74252 8.82422 5.94468 10.0124 5.4736C11.2006 5.00253 12.5081 4.8794 13.7694 5.1198C15.0308 5.3602 16.1893 5.95332 17.0983 6.8241C17.7035 7.40075 18.1832 8.08655 18.5096 8.84181C18.836 9.59708 19.0027 10.4068 19 11.2241C19 13.6343 17.2357 16.1636 15.75 17.8619C14.7599 18.9928 13.6728 20.0425 12.5 21ZM12.5 8.55798C11.7612 8.55798 11.0526 8.83888 10.5302 9.33888C10.0078 9.83888 9.71428 10.517 9.71428 11.2241C9.71428 11.9312 10.0078 12.6094 10.5302 13.1094C11.0526 13.6094 11.7612 13.8903 12.5 13.8903C13.2388 13.8903 13.9474 13.6094 14.4698 13.1094C14.9922 12.6094 15.2857 11.9312 15.2857 11.2241C15.2857 10.517 14.9922 9.83888 14.4698 9.33888C13.9474 8.83888 13.2388 8.55798 12.5 8.55798Z" fill="#1A1A1A"/>
</svg>
