<svg width="17" height="17" viewBox="0 0 17 17" fill="none" xmlns="http://www.w3.org/2000/svg">
<path d="M0.783987 2.65583L2.95792 0.485474C3.11127 0.331558 3.29354 0.209435 3.49427 0.126122C3.69499 0.0428094 3.91021 -5.20551e-05 4.12756 4.7445e-08C4.57051 4.7445e-08 4.98693 0.173384 5.29924 0.485474L7.63851 2.82309C7.79254 2.97634 7.91475 3.15848 7.99812 3.35906C8.08149 3.55964 8.12438 3.77471 8.12433 3.9919C8.12433 4.43454 7.95082 4.85066 7.63851 5.16275L5.92794 6.87211C6.32835 7.75405 6.88504 8.55636 7.57115 9.24033C8.25554 9.92762 9.05835 10.4859 9.94105 10.8885L11.6516 9.17914C11.805 9.02522 11.9872 8.9031 12.188 8.81979C12.3887 8.73647 12.6039 8.69361 12.8213 8.69366C13.2642 8.69366 13.6806 8.86705 13.9929 9.17914L16.3342 11.5147C16.4885 11.6682 16.6108 11.8507 16.6942 12.0517C16.7775 12.2526 16.8203 12.468 16.8201 12.6856C16.8201 13.1282 16.6466 13.5443 16.3342 13.8564L14.1644 16.0247C13.6663 16.5245 12.9784 16.808 12.2722 16.808C12.1231 16.808 11.9803 16.7958 11.8394 16.7713C9.0878 16.3185 6.35865 14.8559 4.15614 12.657C1.95566 10.4601 0.494127 7.73495 0.0348454 4.97713C-0.10396 4.13469 0.175694 3.26777 0.783987 2.65583Z" fill="#F89D16"/>
</svg>
