<svg width="14" height="18" viewBox="0 0 14 18" fill="none" xmlns="http://www.w3.org/2000/svg">
<path d="M6.72805 17.3041C5.51406 16.2686 4.3888 15.1333 3.36403 13.9103C1.82619 12.0735 8.44749e-07 9.33807 8.44749e-07 6.73143C-0.000666096 5.4002 0.3936 4.09869 1.1329 2.99162C1.8722 1.88454 2.92331 1.02167 4.1532 0.512204C5.38308 0.00273612 6.73646 -0.130428 8.04206 0.129565C9.34765 0.389557 10.5468 1.03102 11.4877 1.97277C12.1141 2.59642 12.6106 3.33812 12.9485 4.15494C13.2864 4.97176 13.4589 5.84748 13.4561 6.73143C13.4561 9.33807 11.6299 12.0735 10.0921 13.9103C9.06731 15.1333 7.94204 16.2686 6.72805 17.3041ZM6.72805 3.84798C5.96332 3.84798 5.2299 4.15177 4.68915 4.69252C4.14839 5.23327 3.8446 5.96669 3.8446 6.73143C3.8446 7.49616 4.14839 8.22958 4.68915 8.77033C5.2299 9.31109 5.96332 9.61488 6.72805 9.61488C7.49279 9.61488 8.22621 9.31109 8.76696 8.77033C9.30771 8.22958 9.6115 7.49616 9.6115 6.73143C9.6115 5.96669 9.30771 5.23327 8.76696 4.69252C8.22621 4.15177 7.49279 3.84798 6.72805 3.84798Z" fill="#F89D16"/>
</svg>
