<svg width="25" height="25" viewBox="0 0 25 25" fill="none" xmlns="http://www.w3.org/2000/svg">
<circle cx="12.5" cy="12.5" r="12.5" fill="#F89D16"/>
<path d="M6.60601 8.05264L8.28621 6.37521C8.40473 6.25625 8.5456 6.16187 8.70074 6.09748C8.85587 6.03309 9.02221 5.99996 9.1902 6C9.53255 6 9.85438 6.13401 10.0958 6.37521L11.9037 8.18192C12.0228 8.30036 12.1172 8.44113 12.1817 8.59616C12.2461 8.75118 12.2793 8.9174 12.2792 9.08527C12.2792 9.42738 12.1451 9.74899 11.9037 9.9902L10.5817 11.3113C10.8911 11.993 11.3214 12.6131 11.8517 13.1417C12.3806 13.6729 13.0011 14.1044 13.6833 14.4155L15.0054 13.0944C15.1239 12.9754 15.2648 12.881 15.4199 12.8166C15.5751 12.7523 15.7414 12.7191 15.9094 12.7192C16.2517 12.7192 16.5736 12.8532 16.815 13.0944L18.6245 14.8995C18.7437 15.0182 18.8382 15.1592 18.9027 15.3145C18.9671 15.4698 19.0002 15.6363 19 15.8044C19 16.1465 18.8659 16.4682 18.6245 16.7094L16.9475 18.3852C16.5625 18.7715 16.0309 18.9906 15.485 18.9906C15.3698 18.9906 15.2594 18.9811 15.1505 18.9622C13.0239 18.6122 10.9146 17.4819 9.21228 15.7824C7.51158 14.0844 6.38199 11.9782 6.02701 9.84673C5.91973 9.19563 6.13587 8.5256 6.60601 8.05264Z" fill="#1A1A1A"/>
</svg>
