<svg width="40" height="40" viewBox="0 0 40 40" fill="none" xmlns="http://www.w3.org/2000/svg">
<rect width="40" height="40" rx="8" fill="#F89D16"/>
<path d="M32.4457 9.33279H7.55032C7.31559 9.33307 7.09055 9.4264 6.9246 9.59229C6.75865 9.75819 6.66534 9.9831 6.66516 10.2177V11.9978C6.66516 12.0798 6.75416 12.174 6.82689 12.212L19.9125 19.681C19.946 19.7002 19.984 19.7101 20.0226 19.7098C20.0621 19.7099 20.1008 19.6994 20.1348 19.6793L32.8249 12.2193C32.8963 12.1795 33.0854 12.0743 33.1563 12.0258C33.2422 11.9674 33.3309 11.9144 33.3309 11.8095V10.2173C33.3306 9.98282 33.2373 9.75799 33.0713 9.59217C32.9054 9.42635 32.6804 9.33307 32.4457 9.33279Z" fill="#1A1A1A"/>
<path d="M33.2216 14.6826C33.1875 14.6632 33.1489 14.6531 33.1097 14.6534C33.0705 14.6536 33.032 14.6642 32.9982 14.684L25.8168 18.9062C25.7882 18.9229 25.7637 18.9458 25.7451 18.9732C25.7266 19.0006 25.7145 19.0318 25.7096 19.0646C25.7048 19.0973 25.7074 19.1307 25.7173 19.1623C25.7271 19.1939 25.744 19.2229 25.7666 19.2471L32.949 26.9838C32.9696 27.0061 32.9946 27.024 33.0225 27.0361C33.0503 27.0483 33.0804 27.0545 33.1108 27.0544C33.1694 27.0543 33.2257 27.031 33.2671 26.9895C33.3086 26.9481 33.332 26.8919 33.3321 26.8333V14.8747C33.3322 14.8358 33.3221 14.7975 33.3027 14.7638C33.2833 14.7301 33.2553 14.7021 33.2216 14.6826Z" fill="#1A1A1A"/>
<path d="M23.746 20.3244C23.7119 20.2873 23.6661 20.263 23.6163 20.2556C23.5664 20.2482 23.5155 20.258 23.4721 20.2836L20.5936 21.9761C20.4249 22.0735 20.2338 22.1254 20.0391 22.1266C19.8443 22.1279 19.6525 22.0785 19.4826 21.9834L16.9494 20.5372C16.9085 20.514 16.8612 20.5043 16.8145 20.5096C16.7677 20.515 16.7239 20.5351 16.6893 20.567L7.06955 29.4834C7.04433 29.5069 7.02496 29.536 7.013 29.5684C7.00104 29.6008 6.9968 29.6355 7.00064 29.6697C7.00447 29.704 7.01627 29.7369 7.03509 29.7659C7.05391 29.7948 7.07922 29.8189 7.10903 29.8363C7.25863 29.9242 7.40304 29.9661 7.54988 29.9661H32.1908C32.2339 29.9662 32.2761 29.9536 32.3121 29.9299C32.3481 29.9062 32.3764 29.8725 32.3933 29.8329C32.4106 29.7935 32.416 29.7499 32.4087 29.7075C32.4014 29.6652 32.3819 29.6258 32.3525 29.5944L23.746 20.3244Z" fill="#1A1A1A"/>
<path d="M14.5729 19.5111C14.5984 19.4875 14.6179 19.4583 14.6301 19.4258C14.6422 19.3934 14.6464 19.3585 14.6426 19.324C14.6387 19.2895 14.6268 19.2565 14.6077 19.2275C14.5887 19.1985 14.5631 19.1744 14.5331 19.1571L6.99532 14.8548C6.96168 14.8357 6.92361 14.8258 6.88493 14.826C6.84625 14.8262 6.8083 14.8366 6.77489 14.8561C6.74148 14.8756 6.71377 14.9035 6.69453 14.937C6.6753 14.9705 6.66521 15.0085 6.66529 15.0472V26.3358C6.66504 26.3789 6.67746 26.4212 6.70099 26.4573C6.72452 26.4935 6.75814 26.5219 6.79769 26.5391C6.83724 26.5564 6.88097 26.5616 6.92349 26.5543C6.966 26.5469 7.00542 26.5273 7.03688 26.4978L14.5729 19.5111Z" fill="#1A1A1A"/>
</svg>
