<svg width="17" height="19" viewBox="0 0 17 19" fill="none" xmlns="http://www.w3.org/2000/svg">
<path d="M16.5 5.23596V13.0457C16.4998 13.2795 16.4376 13.509 16.3199 13.7108C16.2021 13.9127 16.0329 14.0798 15.8295 14.195L8.89952 18.1119C8.70114 18.2232 8.47748 18.2817 8.25 18.2817C8.02252 18.2817 7.79886 18.2232 7.60048 18.1119L0.670477 14.195C0.467121 14.0798 0.297935 13.9127 0.180156 13.7108C0.0623775 13.509 0.000214464 13.2795 0 13.0457V5.23596C0.000205975 5.00224 0.0623655 4.77274 0.180145 4.57086C0.297925 4.36899 0.467115 4.20194 0.670477 4.08674L7.60048 0.169801C7.79886 0.0584711 8.02252 0 8.25 0C8.47748 0 8.70115 0.0584711 8.89952 0.169801L15.8295 4.08674C16.0329 4.20194 16.2021 4.36899 16.3198 4.57087C16.4376 4.77275 16.4998 5.00224 16.5 5.23596V5.23596Z" fill="#F89D16"/>
<path d="M4.28906 8.69578L7.16906 13.0958L12.2091 5.17578" stroke="white"/>
</svg>
