<svg width="14" height="14" viewBox="0 0 14 14" fill="none" xmlns="http://www.w3.org/2000/svg">
<path d="M13.25 4.04086V9.95736C13.2498 10.1344 13.2028 10.3083 13.1135 10.4612C13.0243 10.6142 12.8961 10.7407 12.7421 10.828L7.49206 13.7954C7.34177 13.8797 7.17233 13.924 7 13.924C6.82767 13.924 6.65823 13.8797 6.50794 13.7954L1.25794 10.828C1.10388 10.7407 0.975709 10.6141 0.886482 10.4612C0.797256 10.3083 0.750162 10.1344 0.75 9.95736V4.04086C0.750156 3.86379 0.797247 3.68993 0.886474 3.53699C0.975701 3.38406 1.10387 3.2575 1.25794 3.17023L6.50794 0.202856C6.65822 0.118515 6.82767 0.0742188 7 0.0742188C7.17233 0.0742188 7.34178 0.118515 7.49206 0.202856L12.7421 3.17023C12.8961 3.25751 13.0243 3.38406 13.1135 3.537C13.2027 3.68994 13.2498 3.86379 13.25 4.04086Z" fill="#F89D16"/>
<path d="M4 6.66667L6.18182 10L10 4" stroke="white"/>
</svg>
