<svg width="19" height="18" viewBox="0 0 19 18" fill="none" xmlns="http://www.w3.org/2000/svg">
<path d="M18.2503 12.5062H5.63794L6.27121 11.1744L16.7931 11.1547C17.1489 11.1547 17.4539 10.8923 17.5174 10.5293L18.9746 2.10805C19.0127 1.88719 18.9555 1.65976 18.8157 1.48701C18.7467 1.40199 18.6605 1.3335 18.5632 1.2863C18.4659 1.2391 18.3599 1.21431 18.2524 1.21366L4.86702 1.16774L4.75265 0.612297C4.68064 0.25804 4.37142 0 4.01984 0H0.747631C0.549347 0 0.359184 0.0813282 0.218976 0.226094C0.0787681 0.370859 0 0.567203 0 0.771932C0 0.976661 0.0787681 1.17301 0.218976 1.31777C0.359184 1.46254 0.549347 1.54386 0.747631 1.54386H3.41411L3.91394 3.99743L5.14447 10.1488L3.56025 12.8189C3.47798 12.9335 3.42843 13.0697 3.4172 13.2119C3.40597 13.3541 3.43351 13.4967 3.49671 13.6236C3.62379 13.8838 3.88006 14.0479 4.16386 14.0479H5.49392C5.21037 14.4367 5.05721 14.9103 5.05763 15.3971C5.05763 16.6348 6.03188 17.6407 7.23063 17.6407C8.42938 17.6407 9.40363 16.6348 9.40363 15.3971C9.40363 14.9094 9.24691 14.4349 8.96734 14.0479H12.3793C12.0958 14.4367 11.9426 14.9103 11.943 15.3971C11.943 16.6348 12.9173 17.6407 14.116 17.6407C15.3148 17.6407 16.289 16.6348 16.289 15.3971C16.289 14.9094 16.1323 14.4349 15.8527 14.0479H18.2524C18.6632 14.0479 19 13.7023 19 13.2759C18.9988 13.0714 18.9192 12.8757 18.7788 12.7315C18.6383 12.5873 18.4483 12.5063 18.2503 12.5062ZM5.17835 2.68974L17.3734 2.73128L16.1789 9.63713L6.59949 9.65462L5.17835 2.68974ZM7.23063 16.0881C6.86211 16.0881 6.56136 15.7776 6.56136 15.3971C6.56136 15.0166 6.86211 14.7061 7.23063 14.7061C7.59915 14.7061 7.8999 15.0166 7.8999 15.3971C7.8999 15.5804 7.82939 15.7561 7.70388 15.8857C7.57836 16.0153 7.40813 16.0881 7.23063 16.0881ZM14.116 16.0881C13.7475 16.0881 13.4468 15.7776 13.4468 15.3971C13.4468 15.0166 13.7475 14.7061 14.116 14.7061C14.4846 14.7061 14.7853 15.0166 14.7853 15.3971C14.7853 15.5804 14.7148 15.7561 14.5893 15.8857C14.4638 16.0153 14.2935 16.0881 14.116 16.0881Z" fill="white"/>
</svg>
