<svg width="22" height="21" viewBox="0 0 22 21" fill="none" xmlns="http://www.w3.org/2000/svg">
<path d="M21.1319 14.4808H6.52815L7.2614 12.9388L19.4447 12.916C19.8566 12.916 20.2098 12.6122 20.2834 12.1919L21.9706 2.4409C22.0147 2.18517 21.9485 1.92183 21.7866 1.7218C21.7066 1.62335 21.6069 1.54405 21.4942 1.4894C21.3816 1.43475 21.2588 1.40605 21.1343 1.40529L5.63549 1.35212L5.50307 0.708976C5.41969 0.298783 5.06164 0 4.65455 0H0.865678C0.636086 0 0.415897 0.0941695 0.253551 0.261793C0.0912051 0.429416 0 0.656761 0 0.893816C0 1.13087 0.0912051 1.35822 0.253551 1.52584C0.415897 1.69346 0.636086 1.78763 0.865678 1.78763H3.95318L4.53194 4.6286L5.95675 11.7513L4.12239 14.8429C4.02713 14.9757 3.96976 15.1333 3.95675 15.298C3.94375 15.4626 3.97565 15.6278 4.04882 15.7747C4.19596 16.076 4.4927 16.2659 4.82131 16.2659H6.36139C6.03306 16.7162 5.85572 17.2646 5.8562 17.8282C5.8562 19.2614 6.98428 20.4261 8.37231 20.4261C9.76034 20.4261 10.8884 19.2614 10.8884 17.8282C10.8884 17.2636 10.7069 16.7141 10.3832 16.2659H14.334C14.0056 16.7162 13.8283 17.2646 13.8288 17.8282C13.8288 19.2614 14.9569 20.4261 16.3449 20.4261C17.7329 20.4261 18.861 19.2614 18.861 17.8282C18.861 17.2636 18.6795 16.7141 18.3558 16.2659H21.1343C21.6101 16.2659 22 15.8659 22 15.3721C21.9986 15.1353 21.9065 14.9087 21.7439 14.7417C21.5812 14.5747 21.3612 14.481 21.1319 14.4808ZM5.99599 3.11443L20.1166 3.16254L18.7335 11.1588L7.64151 11.179L5.99599 3.11443ZM8.37231 18.6283C7.9456 18.6283 7.59737 18.2688 7.59737 17.8282C7.59737 17.3876 7.9456 17.0281 8.37231 17.0281C8.79902 17.0281 9.14725 17.3876 9.14725 17.8282C9.14725 18.0404 9.06561 18.2439 8.92028 18.394C8.77495 18.544 8.57784 18.6283 8.37231 18.6283ZM16.3449 18.6283C15.9182 18.6283 15.5699 18.2688 15.5699 17.8282C15.5699 17.3876 15.9182 17.0281 16.3449 17.0281C16.7716 17.0281 17.1198 17.3876 17.1198 17.8282C17.1198 18.0404 17.0382 18.2439 16.8929 18.394C16.7475 18.544 16.5504 18.6283 16.3449 18.6283Z" fill="white"/>
</svg>
