<svg width="24" height="24" viewBox="0 0 24 24" fill="none" xmlns="http://www.w3.org/2000/svg">
<path d="M21.2503 15.5057H8.63794L9.27121 14.174L19.7931 14.1543C20.1489 14.1543 20.4539 13.8919 20.5174 13.5289L21.9746 5.10797C22.0127 4.88711 21.9555 4.65969 21.8157 4.48695C21.7467 4.40193 21.6605 4.33345 21.5632 4.28625C21.4659 4.23905 21.3599 4.21426 21.2524 4.21361L7.86702 4.16769L7.75265 3.61227C7.68064 3.25803 7.37142 3 7.01984 3H3.74763C3.54935 3 3.35918 3.08132 3.21898 3.22608C3.07877 3.37084 3 3.56718 3 3.7719C3 3.97662 3.07877 4.17296 3.21898 4.31772C3.35918 4.46248 3.54935 4.5438 3.74763 4.5438H6.41411L6.91394 6.99726L8.14447 13.1484L6.56025 15.8184C6.47798 15.933 6.42843 16.0691 6.4172 16.2113C6.40597 16.3535 6.43351 16.4962 6.49671 16.6231C6.62379 16.8833 6.88006 17.0473 7.16386 17.0473H8.49392C8.21037 17.4361 8.05721 17.9097 8.05763 18.3965C8.05763 19.6341 9.03188 20.64 10.2306 20.64C11.4294 20.64 12.4036 19.6341 12.4036 18.3965C12.4036 17.9088 12.2469 17.4343 11.9673 17.0473H15.3793C15.0958 17.4361 14.9426 17.9097 14.943 18.3965C14.943 19.6341 15.9173 20.64 17.116 20.64C18.3148 20.64 19.289 19.6341 19.289 18.3965C19.289 17.9088 19.1323 17.4343 18.8527 17.0473H21.2524C21.6632 17.0473 22 16.7018 22 16.2754C21.9988 16.0709 21.9192 15.8752 21.7788 15.731C21.6383 15.5868 21.4483 15.5058 21.2503 15.5057V15.5057ZM8.17835 5.68962L20.3734 5.73117L19.1789 12.6367L9.59949 12.6542L8.17835 5.68962ZM10.2306 19.0875C9.86211 19.0875 9.56136 18.7769 9.56136 18.3965C9.56136 18.016 9.86211 17.7055 10.2306 17.7055C10.5992 17.7055 10.8999 18.016 10.8999 18.3965C10.8999 18.5797 10.8294 18.7555 10.7039 18.8851C10.5784 19.0147 10.4081 19.0875 10.2306 19.0875V19.0875ZM17.116 19.0875C16.7475 19.0875 16.4468 18.7769 16.4468 18.3965C16.4468 18.016 16.7475 17.7055 17.116 17.7055C17.4846 17.7055 17.7853 18.016 17.7853 18.3965C17.7853 18.5797 17.7148 18.7555 17.5893 18.8851C17.4638 19.0147 17.2935 19.0875 17.116 19.0875V19.0875Z" fill="#3F4E5D" fill-opacity="0.6"/>
</svg>
