<svg width="120" height="32" viewBox="0 0 120 32" fill="none" xmlns="http://www.w3.org/2000/svg">
<path d="M8.55363 0.938109C8.76725 0.938109 8.94229 0.772377 9.07877 0.440911H9.86204V5.13146H9.25679C9.01943 4.8938 8.80878 4.50605 8.62483 3.9682C8.44088 3.4241 8.28957 2.9957 8.17089 2.68299C8.05222 2.37029 7.90387 2.0826 7.72586 1.81993C7.33422 1.2383 6.79128 0.897458 6.09702 0.797393V0.0281433C6.84468 0.103192 7.56268 0.365863 8.251 0.816155C8.37561 0.897458 8.47649 0.938109 8.55363 0.938109ZM6.09702 13.0116C7.40246 13.0116 8.33111 12.3236 8.88296 10.9477C9.07284 10.4724 9.20932 9.90331 9.29239 9.24038L10.138 9.45614C9.95401 10.9133 9.52974 12.0047 8.86515 12.7301C8.20056 13.4494 7.27785 13.8402 6.09702 13.9028V13.0116ZM5.35826 13.9028C3.75019 13.8152 2.45661 13.1492 1.47753 11.9046C0.492509 10.6475 0 8.99647 0 6.95139C0 4.9626 0.51031 3.31465 1.53093 2.00755C2.53375 0.719217 3.80952 0.0500325 5.35826 0V0.788012C4.04688 0.919347 3.1746 2.02944 2.74143 4.1183C2.58122 4.8938 2.50111 5.82566 2.50111 6.91386C2.50111 7.99582 2.58122 8.8964 2.74143 9.61562C2.90165 10.3348 3.11526 10.929 3.38229 11.398C3.86886 12.2673 4.52752 12.7864 5.35826 12.9553V13.9028Z" fill="#F89D16"/>
<path d="M19.7508 2.36404C19.7508 1.90123 19.7063 1.60417 19.6173 1.47283C19.5283 1.33524 19.4452 1.24769 19.368 1.21016C19.2909 1.17264 19.2078 1.13824 19.1188 1.10697C18.8281 1.01941 18.6234 0.931855 18.5047 0.844298V0.290814H23.1776V0.844298C23.0174 0.919347 22.8631 0.978761 22.7147 1.02254C22.5723 1.06632 22.4447 1.1226 22.332 1.1914C22.0887 1.3415 21.9671 1.61667 21.9671 2.01693V11.8952C21.9671 12.2955 22.0887 12.5707 22.332 12.7208C22.4447 12.7896 22.5723 12.8458 22.7147 12.8896C22.8631 12.9334 23.0174 12.9928 23.1776 13.0679V13.6213H18.5047V13.0679C19.193 12.9678 19.5906 12.6332 19.6974 12.0641C19.733 11.8765 19.7508 11.6576 19.7508 11.4074V2.36404ZM15.1402 11.4918C15.1402 12.1735 15.2648 12.5832 15.514 12.7208C15.5971 12.7583 15.7336 12.8083 15.9235 12.8709C16.1193 12.9271 16.2736 12.9928 16.3863 13.0679V13.6213H11.7223V13.0679C11.8825 12.9928 12.0338 12.9334 12.1762 12.8896C12.3186 12.8458 12.4462 12.7896 12.559 12.7208C12.8023 12.5707 12.9239 12.2955 12.9239 11.8952V2.01693C12.9239 1.61667 12.8023 1.3415 12.559 1.1914C12.4462 1.1226 12.3186 1.06632 12.1762 1.02254C12.0338 0.978761 11.8825 0.919347 11.7223 0.844298V0.290814H16.3863V0.844298C16.2498 0.938109 16.0866 1.01316 15.8968 1.06944C15.7069 1.12573 15.5734 1.17576 15.4962 1.21954C15.425 1.25707 15.3627 1.32273 15.3093 1.41654C15.1966 1.61667 15.1402 1.96378 15.1402 2.45785V11.4918ZM19.012 7.11087H15.879V6.24781H19.012V7.11087Z" fill="#F89D16"/>
<path d="M29.8798 13.9028C28.3608 13.7902 27.1058 13.0647 26.1148 11.7264C25.1535 10.4255 24.6729 8.83386 24.6729 6.95139C24.6729 5.08142 25.1535 3.49602 26.1148 2.19518C27.1058 0.856806 28.3608 0.131335 29.8798 0.0187622V0.788012C29.0076 0.881823 28.3519 1.36964 27.9128 2.25146C27.4203 3.26462 27.174 4.83126 27.174 6.95139C27.174 10.0659 27.7051 11.989 28.7672 12.7208C29.0995 12.9459 29.4704 13.0804 29.8798 13.1241V13.9028ZM30.6186 13.1241C31.9478 12.9803 32.7845 11.864 33.1286 9.7751C33.2592 9.00585 33.3244 8.06461 33.3244 6.95139C33.3244 3.84937 32.7934 1.9325 31.7312 1.20078C31.3989 0.975634 31.028 0.838044 30.6186 0.788012V0.00938109C32.1495 0.121954 33.4075 0.844298 34.3925 2.17641C35.3597 3.48351 35.8433 5.07517 35.8433 6.95139C35.8433 8.82761 35.3597 10.4193 34.3925 11.7264C33.4075 13.0585 32.1495 13.7808 30.6186 13.8934V13.1241Z" fill="#F89D16"/>
<path d="M42.6079 13.9028C41.0889 13.7902 39.8339 13.0647 38.8429 11.7264C37.8816 10.4255 37.401 8.83386 37.401 6.95139C37.401 5.08142 37.8816 3.49602 38.8429 2.19518C39.8339 0.856806 41.0889 0.131335 42.6079 0.0187622V0.788012C41.7356 0.881823 41.08 1.36964 40.6409 2.25146C40.1483 3.26462 39.9021 4.83126 39.9021 6.95139C39.9021 10.0659 40.4332 11.989 41.4953 12.7208C41.8276 12.9459 42.1985 13.0804 42.6079 13.1241V13.9028ZM43.3467 13.1241C44.6759 12.9803 45.5125 11.864 45.8567 9.7751C45.9872 9.00585 46.0525 8.06461 46.0525 6.95139C46.0525 3.84937 45.5214 1.9325 44.4593 1.20078C44.127 0.975634 43.7561 0.838044 43.3467 0.788012V0.00938109C44.8776 0.121954 46.1356 0.844298 47.1206 2.17641C48.0878 3.48351 48.5714 5.07517 48.5714 6.95139C48.5714 8.82761 48.0878 10.4193 47.1206 11.7264C46.1356 13.0585 44.8776 13.7808 43.3467 13.8934V13.1241Z" fill="#F89D16"/>
<path d="M54.6328 0.0281433C55.0719 0.0719217 55.4458 0.178241 55.7543 0.3471C56.0688 0.51596 56.2825 0.634787 56.3952 0.703582C56.5139 0.772377 56.6118 0.806774 56.6889 0.806774C56.772 0.806774 56.8402 0.788012 56.8936 0.750487C56.947 0.712963 56.9945 0.669185 57.036 0.619152C57.0776 0.56912 57.1132 0.51596 57.1429 0.459673C57.1725 0.397133 57.2022 0.340846 57.2319 0.290814H58.0507V4.69055H57.4099C57.2793 4.5467 57.131 4.234 56.9648 3.75244C56.7987 3.26462 56.6563 2.87687 56.5376 2.58918C56.4249 2.30149 56.2825 2.03257 56.1104 1.78241C55.7306 1.2258 55.2381 0.897458 54.6328 0.797393V0.0281433ZM52.826 13.5744C52.4759 13.4056 52.2296 13.2868 52.0872 13.218C51.9448 13.1429 51.7965 13.1054 51.6422 13.1054C51.4938 13.1054 51.3277 13.2774 51.1437 13.6213H50.316V8.98709H50.9301C51.0607 9.13093 51.1764 9.32793 51.2773 9.57809C51.3841 9.82826 51.4938 10.1003 51.6066 10.3942C51.7253 10.6819 51.8528 10.979 51.9893 11.2855C52.1258 11.5919 52.2919 11.8765 52.4878 12.1391C52.9269 12.7208 53.4846 13.0491 54.1611 13.1241V13.8934C53.6271 13.8434 53.182 13.737 52.826 13.5744ZM54.8999 13.1148C55.5407 13.0335 56.0362 12.7583 56.3863 12.2892C56.6949 11.8702 56.8491 11.3918 56.8491 10.8539C56.8491 10.3098 56.7572 9.87516 56.5732 9.54995C56.3893 9.21849 56.146 8.92767 55.8433 8.67751C55.5467 8.42109 55.2055 8.18969 54.8198 7.98331C54.4341 7.77693 54.0395 7.57367 53.636 7.37354C53.2384 7.16715 52.8468 6.95452 52.4611 6.73562C52.0813 6.51048 51.7431 6.25406 51.4464 5.96637C50.7759 5.31595 50.4406 4.52481 50.4406 3.59296C50.4406 2.64859 50.7462 1.84182 51.3574 1.17264C52.0101 0.472182 52.8557 0.0844298 53.8941 0.00938109V0.788012C53.1583 0.888077 52.6628 1.28521 52.4077 1.97941C52.3246 2.20456 52.283 2.48599 52.283 2.82371C52.283 3.16143 52.378 3.47726 52.5679 3.7712C52.7578 4.06514 53.007 4.32781 53.3155 4.55921C53.6241 4.79061 53.9742 5.00325 54.3658 5.19712C54.7634 5.391 55.1669 5.588 55.5763 5.78813C55.9917 5.98826 56.3952 6.20403 56.7868 6.43543C57.1844 6.66683 57.5375 6.93575 57.846 7.2422C58.5343 7.9364 58.8785 8.77445 58.8785 9.75634C58.8785 10.8195 58.5136 11.7451 57.7837 12.5331C57.0182 13.3712 56.057 13.8277 54.8999 13.9028V13.1148Z" fill="#F89D16"/>
<path d="M60.4717 13.6213V13.0679C60.6142 12.974 60.7744 12.9021 60.9524 12.8521C61.1363 12.8021 61.2669 12.7552 61.344 12.7114C61.4212 12.6676 61.4864 12.5988 61.5398 12.505C61.6585 12.3111 61.7178 11.9546 61.7178 11.4356V2.49537C61.7178 1.97003 61.6733 1.63544 61.5843 1.49159C61.5013 1.34775 61.4212 1.25707 61.344 1.21954C61.2728 1.17576 61.1897 1.13824 61.0948 1.10697C60.7981 1.01941 60.5904 0.931855 60.4717 0.844298V0.290814H63.9341V13.6213H60.4717ZM64.6729 12.8521L64.842 12.8615C66.1771 12.8615 67.1236 12.7145 67.6814 12.4206C68.2688 12.1079 68.6842 11.4887 68.9275 10.5631C68.9809 10.3692 69.0254 10.1941 69.061 10.0378C69.1025 9.87516 69.147 9.72819 69.1945 9.59686C69.2835 9.32168 69.4081 9.09966 69.5683 8.9308H70.1469V13.6213H64.6729V12.8521ZM67.9662 0.290814C68.3341 0.290814 68.9275 0.243908 69.7463 0.150097V4.74683H69.1233C68.9156 4.4654 68.7554 4.14957 68.6426 3.79934C68.5299 3.44911 68.4142 3.10827 68.2955 2.7768C68.1768 2.44534 68.0582 2.17954 67.9395 1.97941C67.8208 1.77928 67.6725 1.61042 67.4944 1.47283C67.1384 1.19765 66.6548 1.06006 66.0436 1.06006C65.4384 1.06006 64.9815 1.10697 64.6729 1.20078V0.290814H67.9662ZM64.6729 5.68494H67.2719V7.44859H64.6729V5.68494Z" fill="#F89D16"/>
<path d="M76.5198 5.37537C77.5404 4.66866 78.0507 3.79309 78.0507 2.74866C78.0507 2.22957 77.9558 1.79179 77.7659 1.43531C77.576 1.07883 77.2912 0.853679 76.9114 0.759868V0.00938109C77.7184 0.0719217 78.3741 0.350227 78.8785 0.844298C79.3591 1.31961 79.5995 1.82931 79.5995 2.37342C79.5995 2.91752 79.5223 3.37094 79.368 3.73367C79.2138 4.09016 79.012 4.41537 78.7628 4.70931C78.3356 5.20338 77.7333 5.66305 76.9559 6.08833L76.5198 5.37537ZM74.1611 7.49549C73.7101 7.9708 73.4846 8.65562 73.4846 9.54995C73.4846 10.3505 73.7339 11.0634 74.2323 11.6888C74.7189 12.308 75.336 12.6926 76.0837 12.8427V13.9122H75.9502C74.6803 13.9122 73.6389 13.5744 72.826 12.899C71.9656 12.1923 71.5354 11.2354 71.5354 10.0284C71.5354 8.97771 71.9656 8.09276 72.826 7.37354C73.0871 7.15465 73.3719 6.94513 73.6805 6.74501L74.1611 7.49549ZM81.7356 13.8559C80.7744 13.8559 79.9229 13.5088 79.1811 12.8146C78.4809 13.3837 77.6947 13.7308 76.8224 13.8559V12.899C77.5226 12.8427 78.0982 12.6144 78.5492 12.2142C77.7184 11.4074 77.0509 10.6694 76.5465 10.0002C74.2798 7.03582 73.1464 4.80937 73.1464 3.32091C73.1464 2.42032 73.4312 1.66358 74.0009 1.05068C74.5409 0.462801 75.2648 0.118827 76.1727 0.0187622V0.741106C75.5022 0.859933 75.1669 1.38215 75.1669 2.30775C75.1669 3.37094 75.4666 4.45915 76.0659 5.57237C76.9797 7.06709 78.0418 8.50552 79.2523 9.88767C79.4956 10.1691 79.727 10.4161 79.9466 10.6288C80.2492 10.1347 80.4539 9.51555 80.5608 8.77132C80.5904 8.56494 80.6053 8.3523 80.6053 8.13341C80.6053 7.90826 80.5548 7.72689 80.4539 7.5893C80.359 7.44546 80.2403 7.34227 80.0979 7.27973C79.9555 7.21093 79.8042 7.1609 79.644 7.12963C79.4838 7.09836 79.3443 7.0452 79.2256 6.97015V6.36038H83.7116V6.95139C83.5514 7.00142 83.3912 7.0452 83.231 7.08272C83.0767 7.11399 82.9254 7.1609 82.777 7.22344C82.4388 7.36728 82.1837 7.60494 82.0116 7.9364C81.9107 8.18031 81.8098 8.43986 81.7089 8.71503C81.614 8.99021 81.5102 9.26852 81.3974 9.54995C81.1245 10.2504 80.8278 10.8383 80.5073 11.3136C80.9286 11.8202 81.2253 12.1423 81.3974 12.2798C81.7356 12.5488 82.059 12.6832 82.3676 12.6832C82.9966 12.6832 83.3853 12.2392 83.5336 11.3511L84.1745 11.6232C83.9668 12.6613 83.4832 13.3462 82.7236 13.6776C82.4447 13.7965 82.1154 13.8559 81.7356 13.8559Z" fill="#F89D16"/>
<path d="M90.1825 1.06006C89.8976 1.06006 89.684 1.08195 89.5416 1.12573V0.290814H90.4673C92.0279 0.290814 93.2028 0.60039 93.992 1.21954C94.7159 1.78241 95.0779 2.56729 95.0779 3.5742C95.0779 4.37472 94.799 5.0439 94.2412 5.58175C93.6894 6.11334 92.9417 6.43543 91.9982 6.548V6.58553C93.7606 6.83569 94.9058 7.50487 95.4339 8.59308C95.6297 8.98083 95.7276 9.43738 95.7276 9.96272C95.7276 10.4818 95.6416 10.9634 95.4695 11.4074C95.2974 11.8514 95.0304 12.2392 94.6684 12.5707C93.8911 13.2711 92.7607 13.6213 91.2773 13.6213H89.5416V12.7958C89.6722 12.8333 89.9392 12.8521 90.3427 12.8521C91.3692 12.8521 92.1228 12.6332 92.6035 12.1954C93.0841 11.7576 93.3244 11.0541 93.3244 10.0847C93.3244 9.11529 93.0633 8.37106 92.5412 7.85197C92.0249 7.33289 91.2387 7.07334 90.1825 7.07334H89.5416V6.24781H89.8798C91.7371 6.24781 92.6658 5.36286 92.6658 3.59296C92.6658 1.90436 91.838 1.06006 90.1825 1.06006ZM88.8028 13.6213H85.3405V13.0679C85.5007 12.9928 85.655 12.9334 85.8033 12.8896C85.9576 12.8458 86.0941 12.7896 86.2127 12.7208C86.462 12.5707 86.5866 12.2955 86.5866 11.8952V2.01693C86.5866 1.61667 86.462 1.3415 86.2127 1.1914C86.0941 1.1226 85.9576 1.06632 85.8033 1.02254C85.655 0.978761 85.5007 0.919347 85.3405 0.844298V0.290814H88.8028V13.6213Z" fill="#F89D16"/>
<path d="M103.596 13.1335C104.842 13.0772 105.658 12.5644 106.044 11.595C106.174 11.2761 106.239 10.9071 106.239 10.4881V2.12951C106.239 1.61042 105.949 1.24769 105.367 1.0413C105.207 0.985015 105.047 0.919347 104.887 0.844298V0.290814H108.625V0.844298C108.465 0.919347 108.301 0.985015 108.135 1.0413C107.975 1.09759 107.83 1.16951 107.699 1.25707C107.402 1.44469 107.254 1.7355 107.254 2.12951V10.1972C107.254 12.4737 106.035 13.7026 103.596 13.884V13.1335ZM102.857 13.9122C100.638 13.9122 99.2256 13.1836 98.6204 11.7264C98.4186 11.2448 98.3178 10.6913 98.3178 10.0659V2.01693C98.3178 1.61667 98.202 1.3415 97.9706 1.1914C97.8638 1.1226 97.7362 1.06632 97.5879 1.02254C97.4396 0.978761 97.2793 0.919347 97.1073 0.844298V0.290814H101.762V0.844298C101.584 0.919347 101.421 0.978761 101.273 1.02254C101.124 1.06632 100.994 1.1226 100.881 1.1914C100.65 1.33524 100.534 1.61042 100.534 2.01693V10.5068C100.534 11.2385 100.745 11.8389 101.166 12.308C101.57 12.7583 102.133 13.0272 102.857 13.1148V13.9122Z" fill="#F89D16"/>
<path d="M115.363 6.19152C116.514 3.82749 117.131 2.53289 117.214 2.30775C117.315 2.02632 117.365 1.8168 117.365 1.67922C117.365 1.53537 117.327 1.4228 117.25 1.3415C117.173 1.25394 117.075 1.18827 116.956 1.14449C116.843 1.09446 116.716 1.05381 116.573 1.02254C116.431 0.985015 116.297 0.938109 116.173 0.881823V0.290814H120V0.881823C119.905 0.956871 119.739 1.03505 119.502 1.11635C119.264 1.1914 119.089 1.26019 118.976 1.32273C118.87 1.37902 118.736 1.53537 118.576 1.79179C118.416 2.04195 118.217 2.39531 117.98 2.85185C117.742 3.30214 117.508 3.7712 117.276 4.25902C117.045 4.74058 116.814 5.23152 116.582 5.73185C116.357 6.22592 116.128 6.71373 115.897 7.1953L115.363 6.19152ZM115.523 7.96455L115.434 8.10526V11.4543C115.434 12.161 115.594 12.5832 115.915 12.7208C116.009 12.7583 116.11 12.7896 116.217 12.8146C116.544 12.9021 116.763 12.9866 116.876 13.0679V13.6213H111.776V13.0679C111.906 12.9803 112.075 12.9115 112.283 12.8615C112.497 12.8114 112.651 12.7677 112.746 12.7301C112.841 12.6864 112.921 12.6144 112.986 12.5144C113.135 12.308 113.209 11.939 113.209 11.4074V8.06774L110.12 1.82931C109.948 1.47909 109.616 1.21641 109.123 1.0413C109.005 0.997523 108.889 0.944363 108.776 0.881823V0.290814H113.752V0.881823C113.609 0.944363 113.464 0.991269 113.316 1.02254C113.173 1.05381 113.046 1.08821 112.933 1.12573C112.672 1.21954 112.541 1.37589 112.541 1.59479C112.541 1.75739 112.633 2.02944 112.817 2.41094C113.001 2.78618 113.182 3.16143 113.36 3.53667C113.544 3.90566 113.769 4.36533 114.036 4.91569C114.309 5.46605 114.636 6.13211 115.016 6.91386L115.523 7.96455Z" fill="#F89D16"/>
<path d="M17.1028 29.842H17.8378V23.347H20.3528V22.642H14.5878V23.347H17.1028V29.842ZM21.1546 29.842H24.1646C24.8013 29.842 25.3146 29.662 25.7046 29.302C26.0946 28.9386 26.2896 28.4453 26.2896 27.822C26.2896 27.4053 26.183 27.042 25.9696 26.732C25.7596 26.422 25.468 26.1853 25.0946 26.022C25.3546 25.872 25.5596 25.6636 25.7096 25.397C25.863 25.127 25.9396 24.827 25.9396 24.497C25.9396 24.157 25.8563 23.847 25.6896 23.567C25.523 23.2836 25.2896 23.0586 24.9896 22.892C24.6896 22.7253 24.338 22.642 23.9346 22.642H21.1546V29.842ZM21.8946 25.712V23.337H23.9296C24.293 23.337 24.5913 23.4436 24.8246 23.657C25.0613 23.8703 25.1796 24.147 25.1796 24.487C25.1796 24.847 25.058 25.142 24.8146 25.372C24.5713 25.5986 24.2763 25.712 23.9296 25.712H21.8946ZM21.8946 29.137V26.407H24.1196C24.3896 26.407 24.6313 26.4703 24.8446 26.597C25.058 26.7236 25.2246 26.8953 25.3446 27.112C25.468 27.3253 25.5296 27.5653 25.5296 27.832C25.5296 28.242 25.3813 28.562 25.0846 28.792C24.788 29.022 24.4213 29.137 23.9846 29.137H21.8946ZM30.2024 29.992C30.9224 29.992 31.5291 29.8336 32.0224 29.517C32.5158 29.2003 32.8891 28.7603 33.1424 28.197C33.3958 27.6303 33.5224 26.9786 33.5224 26.242C33.5224 25.502 33.3958 24.8503 33.1424 24.287C32.8891 23.7236 32.5158 23.2836 32.0224 22.967C31.5291 22.6503 30.9224 22.492 30.2024 22.492C29.4858 22.492 28.8808 22.6503 28.3874 22.967C27.8941 23.2836 27.5208 23.7236 27.2674 24.287C27.0141 24.8503 26.8874 25.502 26.8874 26.242C26.8874 26.9786 27.0141 27.6303 27.2674 28.197C27.5208 28.7603 27.8941 29.2003 28.3874 29.517C28.8808 29.8336 29.4858 29.992 30.2024 29.992ZM30.2024 29.287C29.6391 29.2836 29.1674 29.1536 28.7874 28.897C28.4108 28.6403 28.1291 28.2836 27.9424 27.827C27.7558 27.3703 27.6641 26.842 27.6674 26.242C27.6741 25.642 27.7708 25.1136 27.9574 24.657C28.1441 24.197 28.4241 23.8386 28.7974 23.582C29.1708 23.322 29.6391 23.1936 30.2024 23.197C30.7658 23.2003 31.2358 23.3303 31.6124 23.587C31.9891 23.8436 32.2708 24.2003 32.4574 24.657C32.6474 25.1136 32.7424 25.642 32.7424 26.242C32.7424 26.842 32.6474 27.372 32.4574 27.832C32.2708 28.2886 31.9891 28.6453 31.6124 28.902C31.2358 29.1586 30.7658 29.287 30.2024 29.287ZM39.9688 29.842H39.2288V23.937L35.2638 29.842H34.5238V22.642H35.2638V28.542L39.2288 22.642H39.9688V29.842ZM42.8714 29.842H43.6364L44.2364 28.097H47.4364L48.0414 29.842H48.8064L46.3264 22.642H45.3514L42.8714 29.842ZM44.4764 27.407L45.8314 23.472L47.1964 27.407H44.4764ZM49.7093 29.842H50.4443V26.242L53.9843 29.842H54.9443L51.3143 26.117L54.6693 22.642H53.7293L50.4443 26.042V22.642H49.7093V29.842ZM58.2298 29.992C59.0664 29.992 59.7498 29.7786 60.2798 29.352C60.8098 28.922 61.1731 28.347 61.3698 27.627L60.6198 27.432C60.4664 27.9986 60.1914 28.4503 59.7948 28.787C59.3981 29.1203 58.8764 29.287 58.2298 29.287C57.6664 29.287 57.1948 29.1586 56.8148 28.902C56.4381 28.642 56.1548 28.2836 55.9648 27.827C55.7781 27.3703 55.6864 26.842 55.6898 26.242C55.6964 25.642 55.7931 25.1136 55.9798 24.657C56.1664 24.197 56.4464 23.8386 56.8198 23.582C57.1964 23.3253 57.6664 23.197 58.2298 23.197C58.8764 23.197 59.3981 23.3653 59.7948 23.702C60.1914 24.0353 60.4664 24.4853 60.6198 25.052L61.3698 24.857C61.1731 24.137 60.8098 23.5636 60.2798 23.137C59.7498 22.707 59.0664 22.492 58.2298 22.492C57.5131 22.492 56.9081 22.6503 56.4148 22.967C55.9214 23.2836 55.5481 23.7236 55.2948 24.287C55.0414 24.8503 54.9148 25.502 54.9148 26.242C54.9148 26.9786 55.0414 27.6303 55.2948 28.197C55.5481 28.7603 55.9214 29.2003 56.4148 29.517C56.9081 29.8336 57.5131 29.992 58.2298 29.992ZM62.473 29.842H66.973V29.137H63.208V26.542H66.373V25.837H63.208V23.347H66.973V22.642H62.473V29.842ZM70.7884 29.992C71.625 29.992 72.3084 29.7786 72.8384 29.352C73.3684 28.922 73.7317 28.347 73.9284 27.627L73.1784 27.432C73.025 27.9986 72.75 28.4503 72.3534 28.787C71.9567 29.1203 71.435 29.287 70.7884 29.287C70.225 29.287 69.7534 29.1586 69.3734 28.902C68.9967 28.642 68.7134 28.2836 68.5234 27.827C68.3367 27.3703 68.245 26.842 68.2484 26.242C68.255 25.642 68.3517 25.1136 68.5384 24.657C68.725 24.197 69.005 23.8386 69.3784 23.582C69.755 23.3253 70.225 23.197 70.7884 23.197C71.435 23.197 71.9567 23.3653 72.3534 23.702C72.75 24.0353 73.025 24.4853 73.1784 25.052L73.9284 24.857C73.7317 24.137 73.3684 23.5636 72.8384 23.137C72.3084 22.707 71.625 22.492 70.7884 22.492C70.0717 22.492 69.4667 22.6503 68.9734 22.967C68.48 23.2836 68.1067 23.7236 67.8534 24.287C67.6 24.8503 67.4734 25.502 67.4734 26.242C67.4734 26.9786 67.6 27.6303 67.8534 28.197C68.1067 28.7603 68.48 29.2003 68.9734 29.517C69.4667 29.8336 70.0717 29.992 70.7884 29.992ZM77.9466 29.992C78.7832 29.992 79.4666 29.7786 79.9966 29.352C80.5266 28.922 80.8899 28.347 81.0866 27.627L80.3366 27.432C80.1832 27.9986 79.9082 28.4503 79.5116 28.787C79.1149 29.1203 78.5932 29.287 77.9466 29.287C77.3832 29.287 76.9116 29.1586 76.5316 28.902C76.1549 28.642 75.8716 28.2836 75.6816 27.827C75.4949 27.3703 75.4032 26.842 75.4066 26.242C75.4132 25.642 75.5099 25.1136 75.6966 24.657C75.8832 24.197 76.1632 23.8386 76.5366 23.582C76.9132 23.3253 77.3832 23.197 77.9466 23.197C78.5932 23.197 79.1149 23.3653 79.5116 23.702C79.9082 24.0353 80.1832 24.4853 80.3366 25.052L81.0866 24.857C80.8899 24.137 80.5266 23.5636 79.9966 23.137C79.4666 22.707 78.7832 22.492 77.9466 22.492C77.2299 22.492 76.6249 22.6503 76.1316 22.967C75.6382 23.2836 75.2649 23.7236 75.0116 24.287C74.7582 24.8503 74.6316 25.502 74.6316 26.242C74.6316 26.9786 74.7582 27.6303 75.0116 28.197C75.2649 28.7603 75.6382 29.2003 76.1316 29.517C76.6249 29.8336 77.2299 29.992 77.9466 29.992ZM83.102 29.842H83.902L87.252 22.642H86.467L84.297 27.347L82.167 22.642H81.352L83.912 28.137L83.102 29.842ZM86.9144 29.842H87.6794L88.2794 28.097H91.4794L92.0844 29.842H92.8494L90.3694 22.642H89.3944L86.9144 29.842ZM88.5194 27.407L89.8744 23.472L91.2394 27.407H88.5194ZM93.7523 29.842H94.4873V27.107H96.5323C96.5989 27.107 96.6773 27.1036 96.7673 27.097C96.8573 27.0903 96.9473 27.0803 97.0373 27.067C97.5973 26.9803 98.0289 26.7336 98.3323 26.327C98.6389 25.9203 98.7923 25.437 98.7923 24.877C98.7923 24.3136 98.6406 23.8286 98.3373 23.422C98.0339 23.0153 97.6006 22.7686 97.0373 22.682C96.9473 22.6653 96.8573 22.6553 96.7673 22.652C96.6806 22.6453 96.6023 22.642 96.5323 22.642H93.7523V29.842ZM94.4873 26.407V23.347H96.5123C96.5723 23.347 96.6423 23.3503 96.7223 23.357C96.8056 23.3603 96.8839 23.3703 96.9573 23.387C97.3273 23.467 97.5989 23.652 97.7723 23.942C97.9489 24.2286 98.0373 24.5403 98.0373 24.877C98.0373 25.2103 97.9489 25.522 97.7723 25.812C97.5989 26.102 97.3273 26.2853 96.9573 26.362C96.8839 26.3786 96.8056 26.3903 96.7223 26.397C96.6423 26.4036 96.5723 26.407 96.5123 26.407H94.4873ZM99.7824 29.842H102.562C102.632 29.842 102.711 29.8386 102.797 29.832C102.887 29.8253 102.979 29.8153 103.072 29.802C103.632 29.7153 104.064 29.4686 104.367 29.062C104.671 28.6553 104.822 28.1703 104.822 27.607C104.822 27.047 104.671 26.5636 104.367 26.157C104.064 25.747 103.632 25.5003 103.072 25.417C102.979 25.4003 102.887 25.3903 102.797 25.387C102.711 25.3803 102.632 25.377 102.562 25.377H100.517V22.642H99.7824V29.842ZM100.517 29.137V26.077H102.542C102.602 26.077 102.672 26.0803 102.752 26.087C102.836 26.0936 102.916 26.1053 102.992 26.122C103.359 26.1986 103.629 26.382 103.802 26.672C103.979 26.9586 104.067 27.2703 104.067 27.607C104.067 27.9403 103.979 28.252 103.802 28.542C103.629 28.832 103.359 29.017 102.992 29.097C102.916 29.1103 102.836 29.1203 102.752 29.127C102.672 29.1336 102.602 29.137 102.542 29.137H100.517ZM105.532 29.842H106.267V22.642H105.532V29.842Z" fill="#F89D16"/>
</svg>
