<svg width="137" height="37" viewBox="0 0 137 37" fill="none" xmlns="http://www.w3.org/2000/svg">
<path d="M9.76539 1.07101C10.0093 1.07101 10.2091 0.881796 10.3649 0.503374H11.2592V5.85841H10.5682C10.2972 5.58709 10.0567 5.14441 9.84668 4.53036C9.63668 3.90918 9.46393 3.42008 9.32844 3.06308C9.19295 2.70608 9.02359 2.37764 8.82035 2.07776C8.37324 1.41373 7.75338 1.0246 6.96076 0.910357V0.0321302C7.81434 0.117811 8.63406 0.417693 9.41989 0.931777C9.56216 1.0246 9.67732 1.07101 9.76539 1.07101ZM6.96076 14.8549C8.45114 14.8549 9.51135 14.0695 10.1414 12.4987C10.3582 11.956 10.514 11.3063 10.6088 10.5494L11.5742 10.7958C11.3642 12.4594 10.8798 13.7053 10.121 14.5336C9.36231 15.3547 8.30888 15.8009 6.96076 15.8723V14.8549ZM6.11734 15.8723C4.28146 15.7724 2.80463 15.012 1.68684 13.5911C0.562281 12.1559 0 10.271 0 7.93617C0 5.66563 0.582604 3.78423 1.74781 2.29196C2.8927 0.821106 4.34921 0.0571204 6.11734 0V0.899647C4.62018 1.04959 3.62434 2.31695 3.1298 4.70172C2.94689 5.58709 2.85544 6.65096 2.85544 7.89333C2.85544 9.12856 2.94689 10.1567 3.1298 10.9778C3.31271 11.7989 3.55659 12.4772 3.86144 13.0127C4.41695 14.0052 5.16892 14.5978 6.11734 14.7906V15.8723Z" fill="#F89D16"/>
<path d="M22.5488 2.69894C22.5488 2.17058 22.498 1.83142 22.3964 1.68148C22.2948 1.5244 22.1999 1.42444 22.1119 1.3816C22.0238 1.33876 21.9289 1.29949 21.8273 1.26379C21.4954 1.16383 21.2617 1.06387 21.1262 0.963907V0.332012H26.4611V0.963907C26.2781 1.04959 26.102 1.11742 25.9327 1.1674C25.7701 1.21738 25.6244 1.28164 25.4957 1.36018C25.2179 1.53154 25.0791 1.8457 25.0791 2.30267V13.5804C25.0791 14.0373 25.2179 14.3515 25.4957 14.5229C25.6244 14.6014 25.7701 14.6657 25.9327 14.7156C26.102 14.7656 26.2781 14.8335 26.4611 14.9191V15.551H21.1262V14.9191C21.912 14.8049 22.3659 14.4229 22.4878 13.7732C22.5285 13.559 22.5488 13.3091 22.5488 13.0235V2.69894ZM17.285 13.1198C17.285 13.8981 17.4273 14.3658 17.7118 14.5229C17.8067 14.5657 17.9625 14.6228 18.1793 14.6942C18.4028 14.7585 18.579 14.8335 18.7077 14.9191V15.551H13.383V14.9191C13.5659 14.8335 13.7386 14.7656 13.9012 14.7156C14.0638 14.6657 14.2094 14.6014 14.3382 14.5229C14.6159 14.3515 14.7548 14.0373 14.7548 13.5804V2.30267C14.7548 1.8457 14.6159 1.53154 14.3382 1.36018C14.2094 1.28164 14.0638 1.21738 13.9012 1.1674C13.7386 1.11742 13.5659 1.04959 13.383 0.963907V0.332012H18.7077V0.963907C18.5519 1.07101 18.3656 1.15669 18.1488 1.22095C17.932 1.28521 17.7796 1.34233 17.6915 1.39231C17.6102 1.43515 17.5391 1.51012 17.4781 1.61722C17.3494 1.8457 17.285 2.24198 17.285 2.80604V13.1198ZM21.7054 8.11824H18.1285V7.13291H21.7054V8.11824Z" fill="#F89D16"/>
<path d="M34.1128 15.8723C32.3786 15.7438 30.9458 14.9156 29.8144 13.3876C28.717 11.9025 28.1682 10.0853 28.1682 7.93617C28.1682 5.80129 28.717 3.99129 29.8144 2.50616C30.9458 0.978187 32.3786 0.149941 34.1128 0.0214202V0.899647C33.117 1.00675 32.3684 1.56367 31.8671 2.57042C31.3048 3.72711 31.0237 5.51569 31.0237 7.93617C31.0237 11.4919 31.63 13.6875 32.8426 14.5229C33.222 14.7799 33.6454 14.9334 34.1128 14.9834V15.8723ZM34.9562 14.9834C36.4737 14.8192 37.4289 13.5447 37.8218 11.1599C37.9709 10.2817 38.0454 9.2071 38.0454 7.93617C38.0454 4.3947 37.4391 2.20628 36.2265 1.37089C35.8471 1.11385 35.4237 0.956767 34.9562 0.899647V0.0107101C36.704 0.139231 38.1402 0.963907 39.2648 2.48474C40.369 3.97701 40.9212 5.79415 40.9212 7.93617C40.9212 10.0782 40.369 11.8953 39.2648 13.3876C38.1402 14.9084 36.704 15.7331 34.9562 15.8616V14.9834Z" fill="#F89D16"/>
<path d="M48.644 15.8723C46.9098 15.7438 45.477 14.9156 44.3456 13.3876C43.2482 11.9025 42.6995 10.0853 42.6995 7.93617C42.6995 5.80129 43.2482 3.99129 44.3456 2.50616C45.477 0.978187 46.9098 0.149941 48.644 0.0214202V0.899647C47.6482 1.00675 46.8996 1.56367 46.3983 2.57042C45.836 3.72711 45.5549 5.51569 45.5549 7.93617C45.5549 11.4919 46.1612 13.6875 47.3738 14.5229C47.7532 14.7799 48.1766 14.9334 48.644 14.9834V15.8723ZM49.4875 14.9834C51.0049 14.8192 51.9601 13.5447 52.3531 11.1599C52.5021 10.2817 52.5766 9.2071 52.5766 7.93617C52.5766 4.3947 51.9703 2.20628 50.7577 1.37089C50.3783 1.11385 49.9549 0.956767 49.4875 0.899647V0.0107101C51.2353 0.139231 52.6715 0.963907 53.796 2.48474C54.9003 3.97701 55.4524 5.79415 55.4524 7.93617C55.4524 10.0782 54.9003 11.8953 53.796 13.3876C52.6715 14.9084 51.2353 15.7331 49.4875 15.8616V14.9834Z" fill="#F89D16"/>
<path d="M62.3725 0.0321302C62.8738 0.0821106 63.3006 0.203491 63.6529 0.396273C64.0119 0.589054 64.2558 0.724715 64.3845 0.803256C64.52 0.881796 64.6318 0.921067 64.7198 0.921067C64.8147 0.921067 64.8926 0.899647 64.9536 0.856806C65.0145 0.813966 65.0687 0.763986 65.1162 0.706865C65.1636 0.649745 65.2042 0.589054 65.2381 0.524794C65.272 0.453393 65.3058 0.389133 65.3397 0.332012H66.2746V5.35504H65.5429C65.3939 5.19082 65.2245 4.83382 65.0349 4.28403C64.8452 3.72711 64.6826 3.28442 64.5471 2.95598C64.4184 2.62754 64.2558 2.32052 64.0593 2.03491C63.6258 1.39945 63.0635 1.0246 62.3725 0.910357V0.0321302ZM60.3097 15.4975C59.91 15.3047 59.6288 15.169 59.4663 15.0905C59.3037 15.0048 59.1343 14.962 58.9582 14.962C58.7888 14.962 58.5991 15.1583 58.3891 15.551H57.4441V10.2603H58.1452C58.2943 10.4245 58.4264 10.6494 58.5415 10.935C58.6635 11.2206 58.7888 11.5312 58.9175 11.8668C59.053 12.1952 59.1987 12.5344 59.3545 12.8842C59.5103 13.2341 59.7 13.559 59.9235 13.8588C60.4248 14.5229 61.0616 14.8977 61.8339 14.9834V15.8616C61.2242 15.8045 60.7161 15.6831 60.3097 15.4975ZM62.6773 14.9727C63.409 14.8799 63.9747 14.5657 64.3744 14.0302C64.7266 13.5518 64.9028 13.0056 64.9028 12.3916C64.9028 11.7704 64.7978 11.2741 64.5877 10.9029C64.3777 10.5244 64.1 10.1924 63.7545 9.90682C63.4158 9.61408 63.0262 9.3499 62.5859 9.11428C62.1456 8.87865 61.695 8.6466 61.2344 8.41812C60.7805 8.1825 60.3334 7.93974 59.893 7.68984C59.4595 7.43279 59.0733 7.14005 58.7346 6.81161C57.9691 6.06904 57.5863 5.16583 57.5863 4.10196C57.5863 3.02381 57.9352 2.10275 58.633 1.33876C59.3782 0.539074 60.3435 0.0963907 61.5291 0.0107101V0.899647C60.689 1.01389 60.1234 1.46728 59.8321 2.25983C59.7372 2.51687 59.6898 2.83817 59.6898 3.22373C59.6898 3.6093 59.7982 3.96987 60.015 4.30545C60.2318 4.64103 60.5163 4.94092 60.8686 5.2051C61.2208 5.46928 61.6205 5.71204 62.0676 5.93338C62.5215 6.15473 62.9822 6.37964 63.4496 6.60812C63.9238 6.8366 64.3845 7.08293 64.8316 7.34711C65.2855 7.6113 65.6886 7.91832 66.0409 8.26818C66.8267 9.06073 67.2196 10.0175 67.2196 11.1385C67.2196 12.3523 66.803 13.409 65.9697 14.3087C65.0958 15.2654 63.9984 15.7867 62.6773 15.8723V14.9727Z" fill="#F89D16"/>
<path d="M69.0386 15.551V14.9191C69.2012 14.812 69.3841 14.7299 69.5873 14.6728C69.7973 14.6157 69.9464 14.5621 70.0344 14.5122C70.1225 14.4622 70.197 14.3836 70.258 14.2765C70.3935 14.0552 70.4612 13.6482 70.4612 13.0556V2.84888C70.4612 2.24912 70.4104 1.86712 70.3088 1.7029C70.2139 1.53868 70.1225 1.43515 70.0344 1.39231C69.9531 1.34233 69.8583 1.29949 69.7499 1.26379C69.4112 1.16383 69.1741 1.06387 69.0386 0.963907V0.332012H72.9915V15.551H69.0386ZM73.8349 14.6728L74.028 14.6835C75.5522 14.6835 76.6327 14.5157 77.2695 14.1801C77.9402 13.8231 78.4144 13.1163 78.6922 12.0595C78.7532 11.8382 78.804 11.6383 78.8446 11.4598C78.892 11.2741 78.9428 11.1064 78.997 10.9564C79.0986 10.6422 79.2409 10.3888 79.4238 10.196H80.0843V15.551H73.8349V14.6728ZM77.5947 0.332012C78.0147 0.332012 78.6922 0.278462 79.6271 0.171361V5.4193H78.9157C78.6786 5.098 78.4957 4.73742 78.367 4.33758C78.2383 3.93774 78.1062 3.54861 77.9707 3.17018C77.8352 2.79176 77.6997 2.48831 77.5642 2.25983C77.4287 2.03134 77.2594 1.83856 77.0562 1.68148C76.6497 1.36732 76.0976 1.21024 75.3998 1.21024C74.7088 1.21024 74.1872 1.26379 73.8349 1.37089V0.332012H77.5947ZM73.8349 6.49031H76.8021V8.5038H73.8349V6.49031Z" fill="#F89D16"/>
<path d="M87.3601 6.13687C88.5253 5.33005 89.1079 4.33044 89.1079 3.13805C89.1079 2.54543 88.9995 2.04562 88.7827 1.63864C88.566 1.23166 88.2408 0.974617 87.8072 0.867516V0.0107101C88.7286 0.0821106 89.4771 0.399843 90.053 0.963907C90.6017 1.50655 90.8761 2.08847 90.8761 2.70965C90.8761 3.33083 90.788 3.84849 90.6119 4.26261C90.4357 4.66959 90.2054 5.04088 89.9209 5.37646C89.4331 5.94052 88.7455 6.46532 87.858 6.95084L87.3601 6.13687ZM84.6673 8.55735C84.1524 9.1 83.895 9.88183 83.895 10.9029C83.895 11.8168 84.1795 12.6308 84.7486 13.3448C85.3041 14.0516 86.0086 14.4907 86.8622 14.6621V15.883H86.7098C85.26 15.883 84.0711 15.4975 83.143 14.7264C82.1607 13.9195 81.6696 12.8271 81.6696 11.4491C81.6696 10.2495 82.1607 9.23923 83.143 8.41812C83.4411 8.16822 83.7663 7.92903 84.1185 7.70055L84.6673 8.55735ZM93.3149 15.8188C92.2174 15.8188 91.2453 15.4225 90.3985 14.63C89.5991 15.2797 88.7015 15.676 87.7056 15.8188V14.7264C88.505 14.6621 89.1621 14.4015 89.677 13.9445C88.7286 13.0235 87.9664 12.1809 87.3906 11.4169C84.8027 8.03256 83.5088 5.4907 83.5088 3.79137C83.5088 2.7632 83.834 1.89925 84.4844 1.19953C85.1008 0.528364 85.9273 0.135661 86.9638 0.0214202V0.846096C86.1983 0.981757 85.8155 1.57795 85.8155 2.63468C85.8155 3.84849 86.1576 5.09086 86.8419 6.36179C87.8851 8.06826 89.0978 9.71047 90.4798 11.2884C90.7575 11.6097 91.0217 11.8918 91.2724 12.1345C91.6179 11.5705 91.8516 10.8636 91.9735 10.0139C92.0074 9.7783 92.0243 9.53554 92.0243 9.28564C92.0243 9.0286 91.9667 8.82153 91.8516 8.66445C91.7432 8.50023 91.6077 8.38242 91.4451 8.31102C91.2825 8.23248 91.1098 8.17536 90.9269 8.13966C90.744 8.10396 90.5848 8.04327 90.4493 7.95759V7.26143H95.5708V7.93617C95.3878 7.99329 95.2049 8.04327 95.022 8.08611C94.8459 8.12181 94.6731 8.17536 94.5038 8.24676C94.1176 8.41098 93.8263 8.6823 93.6299 9.06073C93.5147 9.33919 93.3995 9.6355 93.2844 9.94966C93.176 10.2638 93.0574 10.5816 92.9287 10.9029C92.6171 11.7025 92.2784 12.3737 91.9126 12.9164C92.3935 13.4947 92.7323 13.8624 92.9287 14.0195C93.3149 14.3265 93.6841 14.48 94.0363 14.48C94.7544 14.48 95.1982 13.9731 95.3675 12.9592L96.0992 13.2698C95.8621 14.455 95.3099 15.2369 94.4428 15.6153C94.1244 15.751 93.7484 15.8188 93.3149 15.8188Z" fill="#F89D16"/>
<path d="M102.958 1.21024C102.633 1.21024 102.389 1.23523 102.227 1.28521V0.332012H103.283C105.065 0.332012 106.407 0.685445 107.308 1.39231C108.134 2.03491 108.547 2.93099 108.547 4.08054C108.547 4.99447 108.229 5.75845 107.592 6.3725C106.962 6.9794 106.108 7.34711 105.031 7.47563V7.51848C107.043 7.80408 108.351 8.56806 108.954 9.81043C109.177 10.2531 109.289 10.7743 109.289 11.3741C109.289 11.9667 109.191 12.5165 108.994 13.0235C108.798 13.5304 108.493 13.9731 108.08 14.3515C107.192 15.1512 105.902 15.551 104.208 15.551H102.227V14.6085C102.376 14.6514 102.681 14.6728 103.141 14.6728C104.313 14.6728 105.174 14.4229 105.722 13.9231C106.271 13.4233 106.545 12.62 106.545 11.5133C106.545 10.4066 106.247 9.55696 105.651 8.96434C105.062 8.37171 104.164 8.0754 102.958 8.0754H102.227V7.13291H102.613C104.733 7.13291 105.793 6.12259 105.793 4.10196C105.793 2.17415 104.848 1.21024 102.958 1.21024ZM101.383 15.551H97.4304V14.9191C97.6133 14.8335 97.7894 14.7656 97.9588 14.7156C98.1349 14.6657 98.2907 14.6014 98.4262 14.5229C98.7107 14.3515 98.853 14.0373 98.853 13.5804V2.30267C98.853 1.8457 98.7107 1.53154 98.4262 1.36018C98.2907 1.28164 98.1349 1.21738 97.9588 1.1674C97.7894 1.11742 97.6133 1.04959 97.4304 0.963907V0.332012H101.383V15.551Z" fill="#F89D16"/>
<path d="M118.272 14.9941C119.695 14.9298 120.626 14.3444 121.066 13.2377C121.215 12.8735 121.29 12.4523 121.29 11.9739V2.43119C121.29 1.83856 120.958 1.42444 120.294 1.18882C120.111 1.12456 119.928 1.04959 119.745 0.963907V0.332012H124.013V0.963907C123.83 1.04959 123.644 1.12456 123.454 1.18882C123.272 1.25308 123.106 1.33519 122.957 1.43515C122.618 1.64935 122.448 1.98136 122.448 2.43119V11.6419C122.448 14.2408 121.056 15.6439 118.272 15.8509V14.9941ZM117.429 15.883C114.895 15.883 113.283 15.0512 112.592 13.3876C112.361 12.8378 112.246 12.2059 112.246 11.4919V2.30267C112.246 1.8457 112.114 1.53154 111.85 1.36018C111.728 1.28164 111.582 1.21738 111.413 1.1674C111.243 1.11742 111.061 1.04959 110.864 0.963907V0.332012H116.179V0.963907C115.975 1.04959 115.789 1.11742 115.62 1.1674C115.45 1.21738 115.301 1.28164 115.173 1.36018C114.908 1.5244 114.776 1.83856 114.776 2.30267V11.9953C114.776 12.8307 115.017 13.5161 115.498 14.0516C115.959 14.5657 116.602 14.8727 117.429 14.9727V15.883Z" fill="#F89D16"/>
<path d="M131.706 7.06865C133.02 4.36971 133.725 2.89172 133.819 2.63468C133.935 2.31338 133.992 2.07419 133.992 1.9171C133.992 1.75288 133.948 1.62436 133.86 1.53154C133.772 1.43158 133.66 1.35661 133.525 1.30663C133.396 1.24951 133.25 1.2031 133.088 1.1674C132.925 1.12456 132.773 1.07101 132.63 1.00675V0.332012H137V1.00675C136.892 1.09243 136.702 1.18168 136.431 1.2745C136.16 1.36018 135.96 1.43872 135.831 1.51012C135.709 1.57438 135.557 1.75288 135.374 2.04562C135.191 2.33123 134.964 2.73464 134.693 3.25586C134.422 3.76995 134.155 4.30545 133.891 4.86238C133.626 5.41216 133.362 5.97265 133.098 6.54386C132.84 7.10792 132.58 7.66485 132.315 8.21463L131.706 7.06865ZM131.889 9.09286L131.787 9.25351V13.077C131.787 13.8838 131.97 14.3658 132.336 14.5229C132.444 14.5657 132.559 14.6014 132.681 14.63C133.054 14.7299 133.305 14.8263 133.433 14.9191V15.551H127.611V14.9191C127.76 14.8192 127.953 14.7406 128.19 14.6835C128.434 14.6264 128.61 14.5764 128.718 14.5336C128.827 14.4836 128.918 14.4015 128.993 14.2872C129.162 14.0516 129.247 13.6304 129.247 13.0235V9.21067L125.721 2.08847C125.524 1.68862 125.145 1.38874 124.582 1.18882C124.447 1.13884 124.315 1.07815 124.186 1.00675V0.332012H129.866V1.00675C129.704 1.07815 129.538 1.1317 129.369 1.1674C129.206 1.2031 129.06 1.24237 128.932 1.28521C128.634 1.39231 128.484 1.57081 128.484 1.82071C128.484 2.00635 128.59 2.31695 128.8 2.75249C129.01 3.18089 129.216 3.6093 129.419 4.0377C129.629 4.45896 129.887 4.98376 130.192 5.61208C130.503 6.24041 130.876 7.00082 131.309 7.89333L131.889 9.09286Z" fill="#F89D16"/>
<path d="M25.7053 33.3711H26.4403V26.8761H28.9553V26.1711H23.1903V26.8761H25.7053V33.3711ZM29.7571 33.3711H32.7671C33.4037 33.3711 33.9171 33.1911 34.3071 32.8311C34.6971 32.4678 34.8921 31.9744 34.8921 31.3511C34.8921 30.9344 34.7854 30.5711 34.5721 30.2611C34.3621 29.9511 34.0704 29.7144 33.6971 29.5511C33.9571 29.4011 34.1621 29.1928 34.3121 28.9261C34.4654 28.6561 34.5421 28.3561 34.5421 28.0261C34.5421 27.6861 34.4587 27.3761 34.2921 27.0961C34.1254 26.8128 33.8921 26.5878 33.5921 26.4211C33.2921 26.2544 32.9404 26.1711 32.5371 26.1711H29.7571V33.3711ZM30.4971 29.2411V26.8661H32.5321C32.8954 26.8661 33.1937 26.9728 33.4271 27.1861C33.6637 27.3994 33.7821 27.6761 33.7821 28.0161C33.7821 28.3761 33.6604 28.6711 33.4171 28.9011C33.1737 29.1278 32.8787 29.2411 32.5321 29.2411H30.4971ZM30.4971 32.6661V29.9361H32.7221C32.9921 29.9361 33.2337 29.9994 33.4471 30.1261C33.6604 30.2528 33.8271 30.4244 33.9471 30.6411C34.0704 30.8544 34.1321 31.0944 34.1321 31.3611C34.1321 31.7711 33.9837 32.0911 33.6871 32.3211C33.3904 32.5511 33.0237 32.6661 32.5871 32.6661H30.4971ZM38.8049 33.5211C39.5249 33.5211 40.1316 33.3628 40.6249 33.0461C41.1182 32.7294 41.4916 32.2894 41.7449 31.7261C41.9982 31.1594 42.1249 30.5078 42.1249 29.7711C42.1249 29.0311 41.9982 28.3794 41.7449 27.8161C41.4916 27.2528 41.1182 26.8128 40.6249 26.4961C40.1316 26.1794 39.5249 26.0211 38.8049 26.0211C38.0882 26.0211 37.4832 26.1794 36.9899 26.4961C36.4966 26.8128 36.1232 27.2528 35.8699 27.8161C35.6166 28.3794 35.4899 29.0311 35.4899 29.7711C35.4899 30.5078 35.6166 31.1594 35.8699 31.7261C36.1232 32.2894 36.4966 32.7294 36.9899 33.0461C37.4832 33.3628 38.0882 33.5211 38.8049 33.5211ZM38.8049 32.8161C38.2416 32.8128 37.7699 32.6828 37.3899 32.4261C37.0132 32.1694 36.7316 31.8128 36.5449 31.3561C36.3582 30.8994 36.2666 30.3711 36.2699 29.7711C36.2766 29.1711 36.3732 28.6428 36.5599 28.1861C36.7466 27.7261 37.0266 27.3678 37.3999 27.1111C37.7732 26.8511 38.2416 26.7228 38.8049 26.7261C39.3682 26.7294 39.8382 26.8594 40.2149 27.1161C40.5916 27.3728 40.8732 27.7294 41.0599 28.1861C41.2499 28.6428 41.3449 29.1711 41.3449 29.7711C41.3449 30.3711 41.2499 30.9011 41.0599 31.3611C40.8732 31.8178 40.5916 32.1744 40.2149 32.4311C39.8382 32.6878 39.3682 32.8161 38.8049 32.8161ZM48.5712 33.3711H47.8312V27.4661L43.8662 33.3711H43.1262V26.1711H43.8662V32.0711L47.8312 26.1711H48.5712V33.3711ZM51.4739 33.3711H52.2389L52.8389 31.6261H56.0389L56.6439 33.3711H57.4089L54.9289 26.1711H53.9539L51.4739 33.3711ZM53.0789 30.9361L54.4339 27.0011L55.7989 30.9361H53.0789ZM58.3118 33.3711H59.0468V29.7711L62.5868 33.3711H63.5468L59.9168 29.6461L63.2718 26.1711H62.3318L59.0468 29.5711V26.1711H58.3118V33.3711ZM66.8322 33.5211C67.6689 33.5211 68.3522 33.3078 68.8822 32.8811C69.4122 32.4511 69.7756 31.8761 69.9722 31.1561L69.2222 30.9611C69.0689 31.5278 68.7939 31.9794 68.3972 32.3161C68.0006 32.6494 67.4789 32.8161 66.8322 32.8161C66.2689 32.8161 65.7972 32.6878 65.4172 32.4311C65.0406 32.1711 64.7572 31.8128 64.5672 31.3561C64.3806 30.8994 64.2889 30.3711 64.2922 29.7711C64.2989 29.1711 64.3956 28.6428 64.5822 28.1861C64.7689 27.7261 65.0489 27.3678 65.4222 27.1111C65.7989 26.8544 66.2689 26.7261 66.8322 26.7261C67.4789 26.7261 68.0006 26.8944 68.3972 27.2311C68.7939 27.5644 69.0689 28.0144 69.2222 28.5811L69.9722 28.3861C69.7756 27.6661 69.4122 27.0928 68.8822 26.6661C68.3522 26.2361 67.6689 26.0211 66.8322 26.0211C66.1156 26.0211 65.5106 26.1794 65.0172 26.4961C64.5239 26.8128 64.1506 27.2528 63.8972 27.8161C63.6439 28.3794 63.5172 29.0311 63.5172 29.7711C63.5172 30.5078 63.6439 31.1594 63.8972 31.7261C64.1506 32.2894 64.5239 32.7294 65.0172 33.0461C65.5106 33.3628 66.1156 33.5211 66.8322 33.5211ZM71.0754 33.3711H75.5754V32.6661H71.8104V30.0711H74.9754V29.3661H71.8104V26.8761H75.5754V26.1711H71.0754V33.3711ZM79.3908 33.5211C80.2275 33.5211 80.9108 33.3078 81.4408 32.8811C81.9708 32.4511 82.3342 31.8761 82.5308 31.1561L81.7808 30.9611C81.6275 31.5278 81.3525 31.9794 80.9558 32.3161C80.5592 32.6494 80.0375 32.8161 79.3908 32.8161C78.8275 32.8161 78.3558 32.6878 77.9758 32.4311C77.5992 32.1711 77.3158 31.8128 77.1258 31.3561C76.9392 30.8994 76.8475 30.3711 76.8508 29.7711C76.8575 29.1711 76.9542 28.6428 77.1408 28.1861C77.3275 27.7261 77.6075 27.3678 77.9808 27.1111C78.3575 26.8544 78.8275 26.7261 79.3908 26.7261C80.0375 26.7261 80.5592 26.8944 80.9558 27.2311C81.3525 27.5644 81.6275 28.0144 81.7808 28.5811L82.5308 28.3861C82.3342 27.6661 81.9708 27.0928 81.4408 26.6661C80.9108 26.2361 80.2275 26.0211 79.3908 26.0211C78.6742 26.0211 78.0692 26.1794 77.5758 26.4961C77.0825 26.8128 76.7092 27.2528 76.4558 27.8161C76.2025 28.3794 76.0758 29.0311 76.0758 29.7711C76.0758 30.5078 76.2025 31.1594 76.4558 31.7261C76.7092 32.2894 77.0825 32.7294 77.5758 33.0461C78.0692 33.3628 78.6742 33.5211 79.3908 33.5211ZM86.549 33.5211C87.3857 33.5211 88.069 33.3078 88.599 32.8811C89.129 32.4511 89.4924 31.8761 89.689 31.1561L88.939 30.9611C88.7857 31.5278 88.5107 31.9794 88.114 32.3161C87.7174 32.6494 87.1957 32.8161 86.549 32.8161C85.9857 32.8161 85.514 32.6878 85.134 32.4311C84.7574 32.1711 84.474 31.8128 84.284 31.3561C84.0974 30.8994 84.0057 30.3711 84.009 29.7711C84.0157 29.1711 84.1124 28.6428 84.299 28.1861C84.4857 27.7261 84.7657 27.3678 85.139 27.1111C85.5157 26.8544 85.9857 26.7261 86.549 26.7261C87.1957 26.7261 87.7174 26.8944 88.114 27.2311C88.5107 27.5644 88.7857 28.0144 88.939 28.5811L89.689 28.3861C89.4924 27.6661 89.129 27.0928 88.599 26.6661C88.069 26.2361 87.3857 26.0211 86.549 26.0211C85.8324 26.0211 85.2274 26.1794 84.734 26.4961C84.2407 26.8128 83.8674 27.2528 83.614 27.8161C83.3607 28.3794 83.234 29.0311 83.234 29.7711C83.234 30.5078 83.3607 31.1594 83.614 31.7261C83.8674 32.2894 84.2407 32.7294 84.734 33.0461C85.2274 33.3628 85.8324 33.5211 86.549 33.5211ZM91.7045 33.3711H92.5045L95.8545 26.1711H95.0695L92.8995 30.8761L90.7695 26.1711H89.9545L92.5145 31.6661L91.7045 33.3711ZM95.5168 33.3711H96.2818L96.8818 31.6261H100.082L100.687 33.3711H101.452L98.9718 26.1711H97.9968L95.5168 33.3711ZM97.1218 30.9361L98.4768 27.0011L99.8418 30.9361H97.1218ZM102.355 33.3711H103.09V30.6361H105.135C105.201 30.6361 105.28 30.6328 105.37 30.6261C105.46 30.6194 105.55 30.6094 105.64 30.5961C106.2 30.5094 106.631 30.2628 106.935 29.8561C107.241 29.4494 107.395 28.9661 107.395 28.4061C107.395 27.8428 107.243 27.3578 106.94 26.9511C106.636 26.5444 106.203 26.2978 105.64 26.2111C105.55 26.1944 105.46 26.1844 105.37 26.1811C105.283 26.1744 105.205 26.1711 105.135 26.1711H102.355V33.3711ZM103.09 29.9361V26.8761H105.115C105.175 26.8761 105.245 26.8794 105.325 26.8861C105.408 26.8894 105.486 26.8994 105.56 26.9161C105.93 26.9961 106.201 27.1811 106.375 27.4711C106.551 27.7578 106.64 28.0694 106.64 28.4061C106.64 28.7394 106.551 29.0511 106.375 29.3411C106.201 29.6311 105.93 29.8144 105.56 29.8911C105.486 29.9078 105.408 29.9194 105.325 29.9261C105.245 29.9328 105.175 29.9361 105.115 29.9361H103.09ZM108.385 33.3711H111.165C111.235 33.3711 111.313 33.3678 111.4 33.3611C111.49 33.3544 111.582 33.3444 111.675 33.3311C112.235 33.2444 112.667 32.9978 112.97 32.5911C113.273 32.1844 113.425 31.6994 113.425 31.1361C113.425 30.5761 113.273 30.0928 112.97 29.6861C112.667 29.2761 112.235 29.0294 111.675 28.9461C111.582 28.9294 111.49 28.9194 111.4 28.9161C111.313 28.9094 111.235 28.9061 111.165 28.9061H109.12V26.1711H108.385V33.3711ZM109.12 32.6661V29.6061H111.145C111.205 29.6061 111.275 29.6094 111.355 29.6161C111.438 29.6228 111.518 29.6344 111.595 29.6511C111.962 29.7278 112.232 29.9111 112.405 30.2011C112.582 30.4878 112.67 30.7994 112.67 31.1361C112.67 31.4694 112.582 31.7811 112.405 32.0711C112.232 32.3611 111.962 32.5461 111.595 32.6261C111.518 32.6394 111.438 32.6494 111.355 32.6561C111.275 32.6628 111.205 32.6661 111.145 32.6661H109.12ZM114.135 33.3711H114.87V26.1711H114.135V33.3711Z" fill="#F89D16"/>
</svg>
