<svg width="226" height="57" viewBox="0 0 226 57" fill="none" xmlns="http://www.w3.org/2000/svg">
<path d="M16.0584 1.67101C16.4594 1.67101 16.788 1.3758 17.0443 0.785373H18.5148V9.14041H17.3785C16.9329 8.71709 16.5374 8.0264 16.1921 7.06836C15.8467 6.09918 15.5626 5.33608 15.3398 4.77908C15.117 4.22208 14.8385 3.70964 14.5043 3.24175C13.7691 2.20573 12.7498 1.5986 11.4464 1.42036V0.0501302C12.85 0.183811 14.198 0.651693 15.4902 1.45378C15.7242 1.5986 15.9136 1.67101 16.0584 1.67101ZM11.4464 23.1769C13.8972 23.1769 15.6406 21.9515 16.6766 19.5007C17.0331 18.654 17.2894 17.6403 17.4453 16.4594L19.0328 16.8438C18.6874 19.4394 17.8909 21.3833 16.6432 22.6756C15.3955 23.9567 13.6633 24.6529 11.4464 24.7643V23.1769ZM10.0595 24.7643C7.04051 24.6084 4.61198 23.4219 2.77387 21.2051C0.924624 18.9659 0 16.025 0 12.3822C0 8.83963 0.958044 5.90422 2.87413 3.57595C4.7568 1.28111 7.15191 0.0891204 10.0595 0V1.40365C7.59751 1.63759 5.95992 3.61495 5.1467 7.33572C4.84592 8.71709 4.69553 10.377 4.69553 12.3153C4.69553 14.2425 4.84592 15.8467 5.1467 17.1278C5.44748 18.4089 5.84852 19.4672 6.34983 20.3027C7.26331 21.8512 8.49986 22.7758 10.0595 23.0766V24.7643Z" fill="#F89D16"/>
<path d="M37.0796 4.21094C37.0796 3.38657 36.9961 2.85742 36.829 2.62348C36.6619 2.3784 36.5059 2.22244 36.3611 2.1556C36.2163 2.08876 36.0603 2.02749 35.8932 1.97179C35.3474 1.81583 34.963 1.65987 34.7402 1.50391V0.518012H43.513V1.50391C43.2122 1.63759 42.9226 1.74342 42.6441 1.8214C42.3767 1.89938 42.1372 1.99964 41.9256 2.12218C41.4688 2.38954 41.2405 2.8797 41.2405 3.59266V21.1884C41.2405 21.9013 41.4688 22.3915 41.9256 22.6589C42.1372 22.7814 42.3767 22.8817 42.6441 22.9596C42.9226 23.0376 43.2122 23.1434 43.513 23.2771V24.263H34.7402V23.2771C36.0325 23.0989 36.7789 22.5029 36.9794 21.4891C37.0462 21.1549 37.0796 20.765 37.0796 20.3194V4.21094ZM28.4238 20.4698C28.4238 21.6841 28.6578 22.4138 29.1257 22.6589C29.2816 22.7257 29.5378 22.8148 29.8943 22.9262C30.2619 23.0265 30.5516 23.1434 30.7632 23.2771V24.263H22.0072V23.2771C22.3079 23.1434 22.592 23.0376 22.8594 22.9596C23.1267 22.8817 23.3662 22.7814 23.5779 22.6589C24.0346 22.3915 24.263 21.9013 24.263 21.1884V3.59266C24.263 2.8797 24.0346 2.38954 23.5779 2.12218C23.3662 1.99964 23.1267 1.89938 22.8594 1.8214C22.592 1.74342 22.3079 1.63759 22.0072 1.50391V0.518012H30.7632V1.50391C30.507 1.67101 30.2007 1.80469 29.8442 1.90495C29.4877 2.00521 29.2371 2.09433 29.0922 2.17231C28.9585 2.23915 28.8416 2.35612 28.7413 2.52322C28.5297 2.8797 28.4238 3.49797 28.4238 4.37804V20.4698ZM35.6927 12.6662H29.8108V11.1289H35.6927V12.6662Z" fill="#F89D16"/>
<path d="M56.0957 24.7643C53.2439 24.5638 50.8877 23.2716 49.0273 20.8876C47.2227 18.5705 46.3203 15.7353 46.3203 12.3822C46.3203 9.05129 47.2227 6.22729 49.0273 3.91016C50.8877 1.52619 53.2439 0.233941 56.0957 0.0334201V1.40365C54.4581 1.57075 53.2271 2.43967 52.4028 4.01042C51.4782 5.8151 51.0158 8.60569 51.0158 12.3822C51.0158 17.9299 52.0129 21.3555 54.0069 22.6589C54.6308 23.0599 55.327 23.2994 56.0957 23.3774V24.7643ZM57.4826 23.3774C59.978 23.1212 61.5488 21.1327 62.1949 17.4119C62.44 16.0417 62.5625 14.3651 62.5625 12.3822C62.5625 6.8567 61.5655 3.44227 59.5714 2.13889C58.9476 1.73785 58.2513 1.49277 57.4826 1.40365V0.0167101C60.3568 0.217231 62.7185 1.50391 64.5677 3.87674C66.3835 6.20501 67.2915 9.04015 67.2915 12.3822C67.2915 15.7242 66.3835 18.5593 64.5677 20.8876C62.7185 23.2604 60.3568 24.5471 57.4826 24.7476V23.3774Z" fill="#F89D16"/>
<path d="M79.9911 24.7643C77.1393 24.5638 74.7831 23.2716 72.9227 20.8876C71.1181 18.5705 70.2157 15.7353 70.2157 12.3822C70.2157 9.05129 71.1181 6.22729 72.9227 3.91016C74.7831 1.52619 77.1393 0.233941 79.9911 0.0334201V1.40365C78.3535 1.57075 77.1225 2.43967 76.2982 4.01042C75.3736 5.8151 74.9112 8.60569 74.9112 12.3822C74.9112 17.9299 75.9083 21.3555 77.9023 22.6589C78.5262 23.0599 79.2224 23.2994 79.9911 23.3774V24.7643ZM81.378 23.3774C83.8734 23.1212 85.4442 21.1327 86.0903 17.4119C86.3354 16.0417 86.4579 14.3651 86.4579 12.3822C86.4579 6.8567 85.4609 3.44227 83.4668 2.13889C82.843 1.73785 82.1467 1.49277 81.378 1.40365V0.0167101C84.2522 0.217231 86.6139 1.50391 88.4631 3.87674C90.2789 6.20501 91.1869 9.04015 91.1869 12.3822C91.1869 15.7242 90.2789 18.5593 88.4631 20.8876C86.6139 23.2604 84.2522 24.5471 81.378 24.7476V23.3774Z" fill="#F89D16"/>
<path d="M102.566 0.0501302C103.391 0.128111 104.093 0.317491 104.672 0.618273C105.262 0.919054 105.663 1.13071 105.875 1.25326C106.098 1.3758 106.282 1.43707 106.426 1.43707C106.582 1.43707 106.711 1.40365 106.811 1.33681C106.911 1.26997 107 1.19198 107.078 1.10286C107.156 1.01374 107.223 0.919054 107.279 0.818793C107.334 0.707393 107.39 0.607132 107.446 0.518012H108.983V8.35503H107.78C107.535 8.09881 107.256 7.54181 106.944 6.68403C106.633 5.8151 106.365 5.12442 106.142 4.61198C105.931 4.09954 105.663 3.62052 105.34 3.17491C104.627 2.18345 103.703 1.5986 102.566 1.42036V0.0501302ZM99.1743 24.1795C98.517 23.8787 98.0547 23.667 97.7873 23.5445C97.52 23.4108 97.2415 23.344 96.9518 23.344C96.6733 23.344 96.3614 23.6503 96.0161 24.263H94.462V16.0082H95.615C95.8601 16.2645 96.0773 16.6154 96.2667 17.061C96.4672 17.5066 96.6733 17.9912 96.885 18.5148C97.1078 19.0272 97.3473 19.5564 97.6035 20.1022C97.8597 20.6481 98.1717 21.1549 98.5393 21.6228C99.3636 22.6589 100.411 23.2437 101.681 23.3774V24.7476C100.678 24.6585 99.8427 24.4691 99.1743 24.1795ZM103.068 23.3607C104.271 23.2159 105.201 22.7257 105.858 21.8902C106.438 21.1438 106.727 20.2916 106.727 19.3335C106.727 18.3644 106.555 17.5901 106.209 17.0109C105.864 16.4204 105.407 15.9024 104.839 15.4568C104.282 15.0001 103.641 14.5879 102.917 14.2203C102.193 13.8526 101.452 13.4906 100.695 13.1341C99.9485 12.7665 99.2132 12.3877 98.4892 11.9978C97.7762 11.5968 97.1412 11.14 96.5842 10.6276C95.3254 9.46904 94.696 8.05982 94.696 6.39996C94.696 4.71781 95.2697 3.28074 96.4171 2.08876C97.6425 0.841073 99.23 0.150391 101.179 0.0167101V1.40365C99.7981 1.58189 98.8679 2.28928 98.3889 3.52582C98.2329 3.92687 98.1549 4.42817 98.1549 5.02973C98.1549 5.63129 98.3332 6.19387 98.6897 6.71745C99.0462 7.24103 99.514 7.70891 100.093 8.12109C100.673 8.53328 101.33 8.91204 102.065 9.25738C102.811 9.60272 103.569 9.95363 104.338 10.3101C105.117 10.6666 105.875 11.0509 106.61 11.4631C107.357 11.8753 108.019 12.3543 108.599 12.9002C109.891 14.1367 110.537 15.6295 110.537 17.3785C110.537 19.2723 109.852 20.921 108.482 22.3247C107.045 23.8174 105.24 24.6306 103.068 24.7643V23.3607Z" fill="#F89D16"/>
<path d="M113.528 24.263V23.2771C113.796 23.11 114.096 22.9819 114.431 22.8928C114.776 22.8037 115.021 22.7201 115.166 22.6421C115.311 22.5642 115.433 22.4416 115.533 22.2745C115.756 21.9292 115.868 21.2942 115.868 20.3696V4.44488C115.868 3.50911 115.784 2.91312 115.617 2.6569C115.461 2.40068 115.311 2.23915 115.166 2.17231C115.032 2.09433 114.876 2.02749 114.698 1.97179C114.141 1.81583 113.751 1.65987 113.528 1.50391V0.518012H120.028V24.263H113.528ZM121.415 22.8928L121.733 22.9095C124.239 22.9095 126.016 22.6477 127.063 22.1241C128.166 21.5671 128.946 20.4643 129.403 18.8155C129.503 18.4702 129.587 18.1583 129.653 17.8798C129.731 17.5901 129.815 17.3283 129.904 17.0944C130.071 16.6042 130.305 16.2088 130.606 15.908H131.692V24.263H121.415V22.8928ZM127.598 0.518012C128.289 0.518012 129.403 0.434462 130.94 0.267361V8.45529H129.77C129.38 7.95399 129.08 7.39142 128.868 6.76758C128.656 6.14374 128.439 5.5366 128.216 4.94618C127.994 4.35576 127.771 3.88231 127.548 3.52582C127.325 3.16934 127.047 2.86856 126.712 2.62348C126.044 2.13332 125.136 1.88824 123.989 1.88824C122.852 1.88824 121.995 1.97179 121.415 2.13889V0.518012H127.598ZM121.415 10.1263H126.295V13.2678H121.415V10.1263Z" fill="#F89D16"/>
<path d="M143.656 9.57487C145.573 8.31604 146.531 6.75644 146.531 4.89605C146.531 3.97143 146.352 3.19162 145.996 2.55664C145.639 1.92166 145.105 1.52062 144.392 1.35352V0.0167101C145.907 0.128111 147.138 0.623843 148.085 1.50391C148.987 2.35055 149.438 3.25846 149.438 4.22765C149.438 5.19683 149.293 6.00449 149.004 6.65061C148.714 7.28559 148.335 7.86487 147.867 8.38845C147.065 9.26852 145.935 10.0873 144.475 10.8448L143.656 9.57487ZM139.228 13.3513C138.382 14.198 137.958 15.4178 137.958 17.0109C137.958 18.4368 138.426 19.7067 139.362 20.8207C140.275 21.9236 141.434 22.6087 142.838 22.8761V24.781H142.587C140.203 24.781 138.248 24.1795 136.722 22.9763C135.106 21.7175 134.299 20.0131 134.299 17.8631C134.299 15.9915 135.106 14.4152 136.722 13.1341C137.212 12.7442 137.747 12.371 138.326 12.0145L139.228 13.3513ZM153.449 24.6808C151.644 24.6808 150.045 24.0625 148.653 22.826C147.338 23.8397 145.862 24.458 144.225 24.6808V22.9763C145.539 22.8761 146.62 22.4695 147.466 21.7565C145.907 20.3194 144.654 19.0049 143.707 17.8129C139.451 12.5326 137.323 8.5667 137.323 5.91536C137.323 4.3112 137.858 2.96325 138.928 1.87153C139.941 0.824363 141.3 0.211661 143.005 0.0334201V1.3201C141.746 1.53176 141.117 2.46195 141.117 4.11068C141.117 6.00448 141.679 7.94285 142.804 9.92578C144.52 12.5883 146.514 15.1505 148.786 17.6124C149.243 18.1137 149.678 18.5537 150.09 18.9325C150.658 18.0524 151.042 16.9496 151.243 15.6239C151.299 15.2563 151.326 14.8775 151.326 14.4876C151.326 14.0866 151.232 13.7635 151.042 13.5184C150.864 13.2622 150.641 13.0784 150.374 12.967C150.107 12.8445 149.822 12.7554 149.522 12.6997C149.221 12.644 148.959 12.5493 148.736 12.4156V11.3294H157.158V12.3822C156.857 12.4713 156.557 12.5493 156.256 12.6161C155.966 12.6718 155.682 12.7554 155.404 12.8668C154.769 13.123 154.29 13.5463 153.967 14.1367C153.777 14.5712 153.588 15.0335 153.398 15.5237C153.22 16.0138 153.025 16.5095 152.814 17.0109C152.301 18.2585 151.744 19.3057 151.143 20.1523C151.934 21.0547 152.491 21.6284 152.814 21.8735C153.449 22.3525 154.056 22.592 154.635 22.592C155.816 22.592 156.546 21.8011 156.824 20.2192L158.027 20.7038C157.637 22.553 156.729 23.7729 155.303 24.3633C154.78 24.5749 154.162 24.6808 153.449 24.6808Z" fill="#F89D16"/>
<path d="M169.306 1.88824C168.772 1.88824 168.371 1.92723 168.103 2.00521V0.518012H169.841C172.771 0.518012 174.977 1.06944 176.458 2.17231C177.817 3.17491 178.497 4.57299 178.497 6.36654C178.497 7.79246 177.973 8.98445 176.926 9.94249C175.89 10.8894 174.487 11.4631 172.715 11.6636V11.7305C176.024 12.1761 178.174 13.3681 179.165 15.3064C179.533 15.9971 179.717 16.8103 179.717 17.7461C179.717 18.6707 179.555 19.5285 179.232 20.3194C178.909 21.1104 178.408 21.8011 177.728 22.3915C176.269 23.6392 174.147 24.263 171.362 24.263H168.103V22.7925C168.348 22.8594 168.85 22.8928 169.607 22.8928C171.534 22.8928 172.949 22.5029 173.852 21.7231C174.754 20.9433 175.205 19.69 175.205 17.9633C175.205 16.2366 174.715 14.911 173.735 13.9863C172.765 13.0617 171.289 12.5994 169.306 12.5994H168.103V11.1289H168.738C172.225 11.1289 173.969 9.55259 173.969 6.39996C173.969 3.39214 172.414 1.88824 169.306 1.88824ZM166.716 24.263H160.216V23.2771C160.517 23.1434 160.807 23.0376 161.085 22.9596C161.375 22.8817 161.631 22.7814 161.854 22.6589C162.322 22.3915 162.556 21.9013 162.556 21.1884V3.59266C162.556 2.8797 162.322 2.38954 161.854 2.12218C161.631 1.99964 161.375 1.89938 161.085 1.8214C160.807 1.74342 160.517 1.63759 160.216 1.50391V0.518012H166.716V24.263Z" fill="#F89D16"/>
<path d="M194.488 23.3941C196.828 23.2938 198.36 22.3804 199.084 20.6536C199.329 20.0855 199.451 19.4282 199.451 18.6819V3.79319C199.451 2.86856 198.906 2.22244 197.814 1.85482C197.513 1.75456 197.212 1.63759 196.911 1.50391V0.518012H203.93V1.50391C203.629 1.63759 203.323 1.75456 203.011 1.85482C202.71 1.95508 202.437 2.08319 202.192 2.23915C201.635 2.57335 201.356 3.09136 201.356 3.79319V18.1638C201.356 22.2188 199.067 24.4078 194.488 24.7309V23.3941ZM193.102 24.781C188.935 24.781 186.284 23.4832 185.148 20.8876C184.769 20.0298 184.579 19.0439 184.579 17.9299V3.59266C184.579 2.8797 184.362 2.38954 183.928 2.12218C183.727 1.99964 183.488 1.89938 183.209 1.8214C182.931 1.74342 182.63 1.63759 182.307 1.50391V0.518012H191.046V1.50391C190.712 1.63759 190.406 1.74342 190.127 1.8214C189.849 1.89938 189.604 1.99964 189.392 2.12218C188.957 2.3784 188.74 2.86856 188.74 3.59266V18.7153C188.74 20.0187 189.136 21.0881 189.927 21.9236C190.684 22.7257 191.742 23.2047 193.102 23.3607V24.781Z" fill="#F89D16"/>
<path d="M216.579 11.0286C218.74 6.81771 219.899 4.51172 220.055 4.11068C220.244 3.60938 220.339 3.23618 220.339 2.9911C220.339 2.73488 220.267 2.53436 220.122 2.38954C219.977 2.23358 219.793 2.11661 219.57 2.03863C219.359 1.94951 219.119 1.8771 218.852 1.8214C218.584 1.75456 218.334 1.67101 218.1 1.57075V0.518012H225.285V1.57075C225.107 1.70443 224.795 1.84368 224.349 1.9885C223.904 2.12218 223.575 2.24472 223.363 2.35612C223.163 2.45638 222.912 2.73488 222.612 3.19162C222.311 3.63723 221.938 4.26664 221.492 5.07986C221.046 5.88194 220.606 6.71745 220.172 7.58637C219.737 8.44415 219.303 9.31865 218.868 10.2099C218.445 11.0899 218.016 11.9588 217.582 12.8166L216.579 11.0286ZM216.88 14.1868L216.713 14.4375V20.403C216.713 21.6618 217.014 22.4138 217.615 22.6589C217.793 22.7257 217.983 22.7814 218.183 22.826C218.796 22.9819 219.208 23.1323 219.42 23.2771V24.263H209.845V23.2771C210.09 23.1212 210.408 22.9986 210.798 22.9095C211.199 22.8204 211.488 22.7424 211.666 22.6756C211.845 22.5976 211.995 22.4695 212.118 22.2912C212.396 21.9236 212.535 21.2663 212.535 20.3194V14.3707L206.737 3.25846C206.414 2.63462 205.79 2.16674 204.865 1.85482C204.643 1.77684 204.425 1.68215 204.214 1.57075V0.518012H213.555V1.57075C213.287 1.68215 213.014 1.7657 212.736 1.8214C212.469 1.8771 212.229 1.93837 212.017 2.00521C211.527 2.17231 211.282 2.45081 211.282 2.84071C211.282 3.13035 211.455 3.61494 211.8 4.29449C212.145 4.96289 212.485 5.63129 212.819 6.2997C213.165 6.95696 213.588 7.77575 214.089 8.75608C214.602 9.7364 215.215 10.9228 215.928 12.3153L216.88 14.1868Z" fill="#F89D16"/>
<path d="M26.7593 53.7812H28.2293V40.7912H33.2593V39.3812H21.7293V40.7912H26.7593V53.7812ZM34.8629 53.7812H40.8829C42.1562 53.7812 43.1829 53.4212 43.9629 52.7012C44.7429 51.9746 45.1329 50.9879 45.1329 49.7412C45.1329 48.9079 44.9196 48.1812 44.4929 47.5612C44.0729 46.9412 43.4896 46.4679 42.7429 46.1412C43.2629 45.8412 43.6729 45.4246 43.9729 44.8912C44.2796 44.3512 44.4329 43.7512 44.4329 43.0912C44.4329 42.4112 44.2662 41.7912 43.9329 41.2312C43.5996 40.6646 43.1329 40.2146 42.5329 39.8812C41.9329 39.5479 41.2296 39.3812 40.4229 39.3812H34.8629V53.7812ZM36.3429 45.5212V40.7712H40.4129C41.1396 40.7712 41.7362 40.9846 42.2029 41.4112C42.6762 41.8379 42.9129 42.3912 42.9129 43.0712C42.9129 43.7912 42.6696 44.3812 42.1829 44.8412C41.6962 45.2946 41.1062 45.5212 40.4129 45.5212H36.3429ZM36.3429 52.3712V46.9112H40.7929C41.3329 46.9112 41.8162 47.0379 42.2429 47.2912C42.6696 47.5446 43.0029 47.8879 43.2429 48.3212C43.4896 48.7479 43.6129 49.2279 43.6129 49.7612C43.6129 50.5812 43.3162 51.2212 42.7229 51.6812C42.1296 52.1412 41.3962 52.3712 40.5229 52.3712H36.3429ZM52.9585 54.0813C54.3985 54.0813 55.6118 53.7646 56.5985 53.1312C57.5852 52.4979 58.3318 51.6179 58.8385 50.4912C59.3452 49.3579 59.5985 48.0546 59.5985 46.5812C59.5985 45.1012 59.3452 43.7979 58.8385 42.6712C58.3318 41.5446 57.5852 40.6646 56.5985 40.0312C55.6118 39.3979 54.3985 39.0812 52.9585 39.0812C51.5252 39.0812 50.3152 39.3979 49.3285 40.0312C48.3418 40.6646 47.5952 41.5446 47.0885 42.6712C46.5818 43.7979 46.3285 45.1012 46.3285 46.5812C46.3285 48.0546 46.5818 49.3579 47.0885 50.4912C47.5952 51.6179 48.3418 52.4979 49.3285 53.1312C50.3152 53.7646 51.5252 54.0813 52.9585 54.0813ZM52.9585 52.6712C51.8318 52.6646 50.8885 52.4046 50.1285 51.8912C49.3752 51.3779 48.8118 50.6646 48.4385 49.7512C48.0652 48.8379 47.8818 47.7812 47.8885 46.5812C47.9018 45.3812 48.0952 44.3246 48.4685 43.4112C48.8418 42.4912 49.4018 41.7746 50.1485 41.2612C50.8952 40.7412 51.8318 40.4846 52.9585 40.4912C54.0852 40.4979 55.0252 40.7579 55.7785 41.2712C56.5318 41.7846 57.0952 42.4979 57.4685 43.4112C57.8485 44.3246 58.0385 45.3812 58.0385 46.5812C58.0385 47.7812 57.8485 48.8412 57.4685 49.7612C57.0952 50.6746 56.5318 51.3879 55.7785 51.9012C55.0252 52.4146 54.0852 52.6712 52.9585 52.6712ZM72.4912 53.7812H71.0112V41.9712L63.0812 53.7812H61.6012V39.3812H63.0812V51.1812L71.0112 39.3812H72.4912V53.7812ZM78.2965 53.7812H79.8265L81.0265 50.2912H87.4265L88.6365 53.7812H90.1665L85.2065 39.3812H83.2565L78.2965 53.7812ZM81.5065 48.9112L84.2165 41.0412L86.9465 48.9112H81.5065ZM91.9723 53.7812H93.4423V46.5812L100.522 53.7812H102.442L95.1823 46.3312L101.892 39.3812H100.012L93.4423 46.1812V39.3812H91.9723V53.7812ZM109.013 54.0813C110.687 54.0813 112.053 53.6546 113.113 52.8012C114.173 51.9412 114.9 50.7912 115.293 49.3512L113.793 48.9612C113.487 50.0946 112.937 50.9979 112.143 51.6712C111.35 52.3379 110.307 52.6712 109.013 52.6712C107.887 52.6712 106.943 52.4146 106.183 51.9012C105.43 51.3812 104.863 50.6646 104.483 49.7512C104.11 48.8379 103.927 47.7812 103.933 46.5812C103.947 45.3812 104.14 44.3246 104.513 43.4112C104.887 42.4912 105.447 41.7746 106.193 41.2612C106.947 40.7479 107.887 40.4912 109.013 40.4912C110.307 40.4912 111.35 40.8279 112.143 41.5012C112.937 42.1679 113.487 43.0679 113.793 44.2012L115.293 43.8112C114.9 42.3712 114.173 41.2246 113.113 40.3712C112.053 39.5112 110.687 39.0812 109.013 39.0812C107.58 39.0812 106.37 39.3979 105.383 40.0312C104.397 40.6646 103.65 41.5446 103.143 42.6712C102.637 43.7979 102.383 45.1012 102.383 46.5812C102.383 48.0546 102.637 49.3579 103.143 50.4912C103.65 51.6179 104.397 52.4979 105.383 53.1312C106.37 53.7646 107.58 54.0813 109.013 54.0813ZM117.5 53.7812H126.5V52.3712H118.97V47.1812H125.3V45.7712H118.97V40.7912H126.5V39.3812H117.5V53.7812ZM134.13 54.0813C135.804 54.0813 137.17 53.6546 138.23 52.8012C139.29 51.9412 140.017 50.7912 140.41 49.3512L138.91 48.9612C138.604 50.0946 138.054 50.9979 137.26 51.6712C136.467 52.3379 135.424 52.6712 134.13 52.6712C133.004 52.6712 132.06 52.4146 131.3 51.9012C130.547 51.3812 129.98 50.6646 129.6 49.7512C129.227 48.8379 129.044 47.7812 129.05 46.5812C129.064 45.3812 129.257 44.3246 129.63 43.4112C130.004 42.4912 130.564 41.7746 131.31 41.2612C132.064 40.7479 133.004 40.4912 134.13 40.4912C135.424 40.4912 136.467 40.8279 137.26 41.5012C138.054 42.1679 138.604 43.0679 138.91 44.2012L140.41 43.8112C140.017 42.3712 139.29 41.2246 138.23 40.3712C137.17 39.5112 135.804 39.0812 134.13 39.0812C132.697 39.0812 131.487 39.3979 130.5 40.0312C129.514 40.6646 128.767 41.5446 128.26 42.6712C127.754 43.7979 127.5 45.1012 127.5 46.5812C127.5 48.0546 127.754 49.3579 128.26 50.4912C128.767 51.6179 129.514 52.4979 130.5 53.1312C131.487 53.7646 132.697 54.0813 134.13 54.0813ZM148.447 54.0813C150.12 54.0813 151.487 53.6546 152.547 52.8012C153.607 51.9412 154.333 50.7912 154.727 49.3512L153.227 48.9612C152.92 50.0946 152.37 50.9979 151.577 51.6712C150.783 52.3379 149.74 52.6712 148.447 52.6712C147.32 52.6712 146.377 52.4146 145.617 51.9012C144.863 51.3812 144.297 50.6646 143.917 49.7512C143.543 48.8379 143.36 47.7812 143.367 46.5812C143.38 45.3812 143.573 44.3246 143.947 43.4112C144.32 42.4912 144.88 41.7746 145.627 41.2612C146.38 40.7479 147.32 40.4912 148.447 40.4912C149.74 40.4912 150.783 40.8279 151.577 41.5012C152.37 42.1679 152.92 43.0679 153.227 44.2012L154.727 43.8112C154.333 42.3712 153.607 41.2246 152.547 40.3712C151.487 39.5112 150.12 39.0812 148.447 39.0812C147.013 39.0812 145.803 39.3979 144.817 40.0312C143.83 40.6646 143.083 41.5446 142.577 42.6712C142.07 43.7979 141.817 45.1012 141.817 46.5812C141.817 48.0546 142.07 49.3579 142.577 50.4912C143.083 51.6179 143.83 52.4979 144.817 53.1312C145.803 53.7646 147.013 54.0813 148.447 54.0813ZM158.758 53.7812H160.358L167.058 39.3812H165.488L161.148 48.7912L156.888 39.3812H155.258L160.378 50.3712L158.758 53.7812ZM166.382 53.7812H167.912L169.112 50.2912H175.512L176.722 53.7812H178.252L173.292 39.3812H171.342L166.382 53.7812ZM169.592 48.9112L172.302 41.0412L175.032 48.9112H169.592ZM180.058 53.7812H181.528V48.3112H185.618C185.752 48.3112 185.908 48.3046 186.088 48.2912C186.268 48.2779 186.448 48.2579 186.628 48.2312C187.748 48.0579 188.612 47.5646 189.218 46.7512C189.832 45.9379 190.138 44.9712 190.138 43.8512C190.138 42.7246 189.835 41.7546 189.228 40.9412C188.622 40.1279 187.755 39.6346 186.628 39.4612C186.448 39.4279 186.268 39.4079 186.088 39.4012C185.915 39.3879 185.758 39.3812 185.618 39.3812H180.058V53.7812ZM181.528 46.9112V40.7912H185.578C185.698 40.7912 185.838 40.7979 185.998 40.8112C186.165 40.8179 186.322 40.8379 186.468 40.8712C187.208 41.0312 187.752 41.4012 188.098 41.9812C188.452 42.5546 188.628 43.1779 188.628 43.8512C188.628 44.5179 188.452 45.1412 188.098 45.7212C187.752 46.3012 187.208 46.6679 186.468 46.8212C186.322 46.8546 186.165 46.8779 185.998 46.8912C185.838 46.9046 185.698 46.9112 185.578 46.9112H181.528ZM192.119 53.7812H197.679C197.819 53.7812 197.975 53.7746 198.149 53.7612C198.329 53.7479 198.512 53.7279 198.699 53.7012C199.819 53.5279 200.682 53.0346 201.289 52.2212C201.895 51.4079 202.199 50.4379 202.199 49.3112C202.199 48.1912 201.895 47.2246 201.289 46.4112C200.682 45.5912 199.819 45.0979 198.699 44.9312C198.512 44.8979 198.329 44.8779 198.149 44.8712C197.975 44.8579 197.819 44.8512 197.679 44.8512H193.589V39.3812H192.119V53.7812ZM193.589 52.3712V46.2512H197.639C197.759 46.2512 197.899 46.2579 198.059 46.2712C198.225 46.2846 198.385 46.3079 198.539 46.3412C199.272 46.4946 199.812 46.8612 200.159 47.4412C200.512 48.0146 200.689 48.6379 200.689 49.3112C200.689 49.9779 200.512 50.6012 200.159 51.1812C199.812 51.7612 199.272 52.1312 198.539 52.2912C198.385 52.3179 198.225 52.3379 198.059 52.3512C197.899 52.3646 197.759 52.3712 197.639 52.3712H193.589ZM203.619 53.7812H205.089V39.3812H203.619V53.7812Z" fill="#F89D16"/>
</svg>
