<svg width="38" height="30" viewBox="0 0 38 30" fill="none" xmlns="http://www.w3.org/2000/svg">
<g filter="url(#filter0_d)">
<path d="M11.8157 1.58685C10.3216 1.85134 8.02697 2.86643 7.47654 3.50265C6.75454 4.34617 6.31133 5.93313 6.31133 7.72741C6.31133 8.2421 6.27559 8.45655 6.15406 8.7282C5.7323 9.67894 6.21125 11.03 7.3979 12.2238C7.98408 12.81 8.95627 14.1182 8.95627 14.3112C8.95627 14.3898 8.90624 14.6114 8.84905 14.8187C8.606 15.6265 7.81966 16.1054 5.45351 16.8703C3.68069 17.4494 2.98728 17.771 2.40825 18.2929C1.49325 19.115 1.18586 20.1372 1.05004 22.7464L1 23.6971H4.01666H7.02618V23.1253V22.5534H4.62429H2.22239L2.27243 21.9958C2.40825 20.4088 2.57267 19.8798 3.08736 19.3223C3.57346 18.7933 4.03096 18.5717 5.95391 17.9426C6.76169 17.6781 7.68384 17.3421 7.99838 17.1849C9.43522 16.5058 10.1 15.5622 10.1 14.2111V13.675L9.65683 13.1245C9.41378 12.8243 9.07065 12.3525 8.89194 12.0808C8.72037 11.802 8.54166 11.5661 8.49877 11.5519C8.29861 11.4875 7.60521 10.6726 7.4265 10.308C7.13341 9.72184 7.11196 9.35726 7.33357 9.03558C7.50513 8.78538 7.51228 8.7139 7.51943 7.71311C7.53372 6.43353 7.60521 5.91169 7.89115 5.16824C8.17709 4.4391 8.40584 4.18175 9.15643 3.77429C10.6934 2.93791 12.5949 2.48041 13.7243 2.68057C14.5607 2.82354 14.9968 3.18096 15.2112 3.91726L15.297 4.21749L15.733 4.26753C15.9689 4.29613 16.2406 4.36046 16.3335 4.4248C16.4908 4.52488 16.5122 4.51773 16.8768 4.10312C17.0841 3.87437 17.2342 3.65276 17.2128 3.60987C17.1485 3.50979 16.4979 3.18096 16.3621 3.18096C16.2978 3.18096 16.1405 3.0094 16.0118 2.80209C15.5758 2.13013 14.9753 1.72982 14.1175 1.54396C13.6028 1.43673 12.5591 1.45818 11.8157 1.58685Z" fill="#F89D16" stroke="#F89D16"/>
<path d="M25.2909 1.5797C23.8684 1.83705 21.6881 2.80209 21.0518 3.45261C20.8874 3.63132 20.7588 3.81003 20.7731 3.85292C20.7874 3.89581 21.0018 4.06023 21.2449 4.21035L21.6881 4.48914L21.9168 4.26753C22.2528 3.94585 23.3966 3.36682 24.2544 3.08088C25.6412 2.62338 26.8564 2.509 27.6999 2.76635C28.1575 2.90217 28.5792 3.34538 28.7222 3.83862L28.8366 4.25324H29.1725C30.1376 4.25324 30.6165 5.09676 30.6094 6.79095C30.6094 7.18412 30.5665 7.7703 30.5236 8.09198L30.4307 8.6853L30.638 8.98554C30.8024 9.23574 30.8381 9.34297 30.8095 9.57172C30.7452 10.0507 30.2949 10.8584 29.8945 11.2159C29.6944 11.3946 29.5085 11.5447 29.4799 11.5447C29.4513 11.5447 29.2369 11.8521 29.001 12.231C28.7722 12.6098 28.3362 13.1817 28.0431 13.4962L27.5069 14.0681L27.5141 14.5757C27.5212 15.2333 27.7214 15.6694 28.2647 16.1912C28.8509 16.7631 29.4728 17.0562 31.4172 17.6996C33.9263 18.5216 35.0986 19.1436 35.4561 19.837C35.6562 20.2301 35.7635 20.9235 35.7635 21.8528V22.5534H33.3687H30.974V23.1253V23.6971H33.9906H37.0001L36.9572 22.1745C36.8858 19.9513 36.6928 19.2722 35.9565 18.5717C35.1987 17.8568 34.055 17.3064 31.8032 16.5844C30.9954 16.3199 30.109 15.9982 29.8374 15.8624C29.3012 15.5979 28.6864 14.9974 28.6864 14.7472C28.6864 14.6686 28.8723 14.3898 29.0939 14.1325C29.3155 13.868 29.6515 13.4105 29.8374 13.1174C30.0232 12.8243 30.2305 12.5312 30.2877 12.474C30.3449 12.4168 30.5879 12.1809 30.8167 11.9522C31.7603 11.0372 32.2178 9.55742 31.8318 8.6996C31.7031 8.40651 31.696 8.32073 31.7603 7.55584C31.9676 5.23973 31.3385 3.64562 30.0518 3.21671C29.8016 3.13807 29.6872 3.04514 29.5872 2.86643C29.2655 2.26596 28.5864 1.77986 27.7786 1.57255C27.2639 1.43673 26.0629 1.44388 25.2909 1.5797Z" fill="#F89D16" stroke="#F89D16"/>
<path d="M18.5 5.00387C17.0703 5.27551 15.0115 6.09044 14.118 6.7481C13.7176 7.04119 13.3173 7.6774 13.0314 8.45659C12.7169 9.32156 12.6168 9.90773 12.5596 11.2302C12.531 11.9594 12.4738 12.4383 12.4166 12.5598C12.0806 13.2175 12.1664 13.9609 12.6811 14.9903C12.9099 15.4478 13.11 15.7123 13.5604 16.1555C13.8749 16.4701 14.2538 16.9061 14.3967 17.1206C14.5397 17.335 14.8185 17.721 15.0258 17.9784C15.3832 18.4216 15.3975 18.4573 15.3546 18.7647C15.2474 19.5368 14.7613 20.0943 13.8034 20.559C13.4817 20.7091 12.481 21.0808 11.5802 21.3739C9.60011 22.0244 8.98534 22.3247 8.32768 22.9466C7.35548 23.8616 7.06239 24.8552 6.91228 27.7146L6.86938 28.6296H18.8217H30.7811L30.7382 26.9283C30.6882 24.555 30.5166 23.9474 29.6731 23.1539C28.8153 22.3461 27.6286 21.8028 24.469 20.802C24.0186 20.6519 23.4253 20.4232 23.1465 20.2802C22.546 19.9657 22.0027 19.451 21.9313 19.1293C21.8884 18.9291 21.917 18.8648 22.2029 18.5574C22.5961 18.1428 23.1036 17.4494 23.3896 16.9561C23.5111 16.7488 23.7398 16.4772 23.9114 16.3414C24.7549 15.6694 25.4698 14.3184 25.4698 13.4105C25.4698 13.2318 25.3911 12.8887 25.2911 12.6599C25.1266 12.2596 25.1266 12.2024 25.1981 11.6234C25.2911 10.8656 25.2267 9.43593 25.0766 8.86405C24.805 7.84182 24.3546 7.22705 23.6469 6.88392C23.411 6.77669 23.1751 6.68376 23.1322 6.68376C23.0822 6.68376 22.9892 6.57653 22.9249 6.44786C22.5961 5.81879 22.1243 5.41848 21.3451 5.13254C20.7232 4.89664 19.3864 4.83945 18.5 5.00387ZM21.0163 6.26915C21.5738 6.47646 21.917 6.91966 22.1529 7.73459C22.1672 7.79178 22.3173 7.82752 22.5532 7.82752C23.2609 7.82752 23.6969 8.24928 23.9328 9.14999C24.0615 9.65754 24.0758 11.1659 23.9614 12.0094C23.8828 12.5741 23.8828 12.5884 24.0687 12.8601C24.3546 13.289 24.3403 13.6035 24.0043 14.3041C23.7327 14.8616 23.2752 15.4264 22.9606 15.5836C22.8391 15.648 22.639 15.891 22.4674 16.1913C22.0814 16.8489 21.4023 17.7496 21.0377 18.0713C20.7518 18.3358 20.7518 18.3358 20.7518 18.8505C20.7518 19.5582 21.002 20.08 21.5881 20.6305C22.1529 21.1523 22.9249 21.5383 24.183 21.9458C26.2061 22.5963 26.7279 22.7893 27.5071 23.1682C28.8939 23.8544 29.2513 24.2119 29.4372 25.0983C29.4872 25.3699 29.5444 25.999 29.5587 26.5065L29.5802 27.4144H18.836H8.08463L8.12752 27.0713C8.14897 26.8854 8.18471 26.5065 8.20615 26.2349C8.32053 24.9696 8.60647 24.2476 9.20694 23.7186C9.69304 23.2969 10.1505 23.0896 11.9949 22.4891C14.0322 21.8171 14.9901 21.3596 15.5834 20.7734C16.2554 20.1015 16.527 19.4295 16.5341 18.4144V17.8926L16.1767 17.5066C15.9837 17.2921 15.6334 16.8203 15.3904 16.4558C14.89 15.6909 14.94 15.7481 14.554 15.4764C14.025 15.1047 13.3888 13.9824 13.3888 13.4319C13.3888 13.3247 13.4674 13.1031 13.5604 12.9458C13.7176 12.6742 13.7319 12.5527 13.7677 11.2945C13.8106 9.8434 13.8463 9.62179 14.1751 8.76397C14.4897 7.94905 14.7399 7.69885 15.7478 7.19131C16.913 6.59083 18.1712 6.19766 19.2863 6.09044C19.7867 6.03325 20.6302 6.12618 21.0163 6.26915Z" fill="#F89D16" stroke="#F89D16"/>
</g>
<defs>
<filter id="filter0_d" x="0.4729" y="0.974182" width="37.0415" height="28.1554" filterUnits="userSpaceOnUse" color-interpolation-filters="sRGB">
<feFlood flood-opacity="0" result="BackgroundImageFix"/>
<feColorMatrix in="SourceAlpha" type="matrix" values="0 0 0 0 0 0 0 0 0 0 0 0 0 0 0 0 0 0 127 0" result="hardAlpha"/>
<feOffset/>
<feComposite in2="hardAlpha" operator="out"/>
<feColorMatrix type="matrix" values="0 0 0 0 0.972549 0 0 0 0 0.615686 0 0 0 0 0.0862745 0 0 0 1 0"/>
<feBlend mode="normal" in2="BackgroundImageFix" result="effect1_dropShadow"/>
<feBlend mode="normal" in="SourceGraphic" in2="effect1_dropShadow" result="shape"/>
</filter>
</defs>
</svg>
