<svg width="30" height="30" viewBox="0 0 30 30" fill="none" xmlns="http://www.w3.org/2000/svg">
<g clip-path="url(#clip0)">
<path d="M24.6805 11.4553C24.3822 9.92595 23.6421 8.53523 22.5403 7.43344C21.4385 6.3317 20.0478 5.59161 18.5184 5.29319C17.8616 5.16493 17.2251 5.59366 17.0969 6.25055C16.9687 6.9075 17.3973 7.54389 18.0542 7.67203C20.2132 8.0932 21.8804 9.76043 22.3016 11.9194C22.4145 12.498 22.9216 12.8995 23.4898 12.8995C23.5667 12.8995 23.6448 12.8921 23.7232 12.8768C24.3801 12.7486 24.8087 12.1122 24.6805 11.4553Z" fill="#F89D16"/>
<path d="M29.9661 11.5388C29.6363 8.60349 28.3036 5.83741 26.2137 3.75012C24.1238 1.66278 21.356 0.333646 18.4202 0.00751401C17.7549 -0.0663726 17.1559 0.412982 17.082 1.07814C17.0081 1.74335 17.4874 2.34247 18.1526 2.41642C23.1308 2.96942 26.9982 6.83203 27.5576 11.8096C27.6272 12.4287 28.1517 12.8862 28.7603 12.8862C28.8055 12.8862 28.8513 12.8836 28.8972 12.8785C29.5623 12.8037 30.0409 12.204 29.9661 11.5388Z" fill="#F89D16"/>
<path d="M25.3471 18.3144C25.3435 18.3139 25.3398 18.3134 25.3362 18.3129C24.1636 18.1583 23.0071 17.8701 21.9015 17.4577C20.5005 16.9309 18.9072 17.2707 17.8427 18.3232C17.8411 18.3249 17.8394 18.3264 17.8379 18.3281L16.8331 19.3328C14.3351 17.7553 12.2185 15.6387 10.641 13.1407L11.6458 12.1359C11.6474 12.1343 11.649 12.1327 11.6506 12.131C12.7032 11.0666 13.0429 9.47346 12.5172 8.07501C12.1037 6.96677 11.8156 5.81019 11.6609 4.63756C11.6605 4.63386 11.6599 4.63011 11.6594 4.62642C11.3904 2.72342 9.73858 1.30217 7.8187 1.31782H3.87037C3.75652 1.31793 3.64115 1.32315 3.52742 1.33346C1.41471 1.52436 -0.148802 3.39848 0.0421549 5.51119C0.0427408 5.51751 0.0433268 5.52378 0.0440299 5.53011C0.494263 9.7696 1.95705 13.902 4.27432 17.4806C6.37736 20.7888 9.23725 23.6487 12.5455 25.7519C16.1075 28.0608 20.2207 29.5235 24.4408 29.9821C24.4482 29.983 24.4557 29.9837 24.463 29.9843C24.578 29.9947 24.6944 29.9999 24.81 29.9999C24.8148 29.9999 24.8196 29.9999 24.8245 30C26.9458 29.9913 28.6646 28.2585 28.656 26.1421V22.2027C28.6961 20.2566 27.2763 18.5865 25.3471 18.3144ZM26.2323 22.1891V26.147C26.2356 26.9319 25.5995 27.573 24.815 27.5763C24.7731 27.576 24.7315 27.5747 24.6899 27.5712C20.8474 27.1516 17.1027 25.8185 13.8596 23.7153C13.8565 23.7132 13.8533 23.7112 13.8502 23.7093C10.8367 21.7944 8.23191 19.1895 6.31707 16.1762C6.31519 16.1732 6.31332 16.1702 6.31138 16.1672C4.20025 12.9085 2.86695 9.14563 2.45528 5.28472C2.38947 4.50642 2.96668 3.81765 3.74557 3.74728C3.78758 3.74353 3.83012 3.74154 3.87125 3.74154H7.82415C7.83271 3.74148 7.84138 3.74137 7.85011 3.74142C8.55446 3.74142 9.15804 4.2632 9.25893 4.96129C9.43765 6.31263 9.76993 7.64523 10.2475 8.92509C10.4419 9.44259 10.3171 10.0307 9.92948 10.4246L8.25857 12.0955C7.87284 12.4811 7.79239 13.0771 8.06204 13.5513C10.0447 17.0381 12.9357 19.9291 16.4225 21.9118C16.8967 22.1813 17.4926 22.101 17.8784 21.7152L19.549 20.0446C19.9428 19.6566 20.5314 19.5318 21.0515 19.7273C22.3288 20.2039 23.6617 20.5362 25.013 20.7149C25.7267 20.8178 26.2506 21.4379 26.2327 22.159C26.2325 22.1691 26.2323 22.1791 26.2323 22.1891Z" fill="#F89D16"/>
</g>
<defs>
<clipPath id="clip0">
<rect width="30" height="30" fill="white"/>
</clipPath>
</defs>
</svg>
