<svg width="30" height="35" viewBox="0 0 30 35" fill="none" xmlns="http://www.w3.org/2000/svg">
<path d="M8.44541 34.5526C6.14259 29.7609 7.36892 27.0152 9.13882 24.4283C11.077 21.5953 11.5765 18.7911 11.5765 18.7911C11.5765 18.7911 13.1002 20.7718 12.4907 23.8697C15.1824 20.8733 15.6904 16.0993 15.2839 14.271C21.3682 18.5229 23.9685 27.7295 20.4642 34.5526C39.1028 24.0069 25.1004 8.22744 22.6627 6.44997C23.4753 8.22738 23.6294 11.2364 21.9878 12.6966C19.209 2.15951 12.3383 0 12.3383 0C13.151 5.43406 9.39278 11.3762 5.76877 15.8162C5.64147 13.6494 5.50619 12.1542 4.36674 10.0807C4.11096 14.0169 1.10275 17.2256 0.288128 21.1695C-0.815309 26.5105 1.11467 30.4211 8.44541 34.5526Z" fill="#F89D16"/>
</svg>
