<svg width="40" height="27" viewBox="0 0 40 27" fill="none" xmlns="http://www.w3.org/2000/svg">
<path d="M39.9994 13.4679C39.9994 13.4613 39.999 13.4546 39.9989 13.4446C39.9879 12.9433 39.5854 12.5439 39.0781 12.5439H38.8363L35.1022 5.32457C34.9447 5.01957 34.6305 4.8299 34.2836 4.8298L27.9085 4.82847L28.1517 2.9006C28.2211 2.13017 27.9829 1.40273 27.4809 0.852133C26.9798 0.302666 26.2802 0 25.5108 0H5.72466C5.22717 0 4.80456 0.384933 4.75713 0.8812L4.5588 2.46957H15.832C16.5639 2.46957 17.1418 3.06297 17.1227 3.79497C17.1035 4.52697 16.4946 5.12033 15.7626 5.12033H12.0023C12.003 5.12223 12.0037 5.12367 12.0043 5.127H0.962178C0.44452 5.127 0.0138645 5.54657 0.000326866 6.06423C-0.0132098 6.5819 0.395386 7.00147 0.913044 7.00147H15.5317C16.2103 7.10613 16.7172 7.69283 16.6986 8.40333C16.6781 9.18363 16.0322 9.8163 15.2532 9.82283H5.17482C4.65195 9.82283 4.21704 10.2467 4.20331 10.7695C4.18958 11.2924 4.60235 11.7162 5.12521 11.7162H15.0849C15.7734 11.8122 16.2905 12.4037 16.2718 13.1212C16.2513 13.9054 15.5988 14.5412 14.8145 14.5412H3.38848V14.5422H2.42843C1.90557 14.5422 1.47065 14.9661 1.45692 15.489C1.44319 16.0118 1.85587 16.4357 2.37882 16.4357H3.20738L2.88332 19.8266C2.81384 20.5969 3.05203 21.3243 3.55416 21.8749C4.05515 22.4245 4.75486 22.7271 5.52425 22.7271H6.23901C6.57963 24.6748 8.26476 26.1465 10.326 26.1465C12.3873 26.1465 14.1495 24.6748 14.5919 22.7272H23.5116C24.2328 22.7272 24.9156 22.4515 25.451 21.9999C25.9407 22.4698 26.5897 22.7272 27.2984 22.7272H27.4452C27.7857 24.6748 29.4708 26.1465 31.5322 26.1465C33.5934 26.1465 35.3556 24.6748 35.798 22.7272H36.3868C37.9205 22.7272 39.2808 21.4803 39.419 19.9476L39.9959 13.5568C39.9967 13.5468 39.9963 13.5402 39.9968 13.5302C39.9978 13.5168 39.9996 13.5035 40 13.4908C40.0002 13.4842 39.9994 13.4742 39.9994 13.4675L39.9994 13.4679ZM10.3756 24.2529C9.07061 24.2529 8.03662 23.1912 8.07079 21.8862C8.10497 20.5811 9.19453 19.5193 10.4996 19.5193C11.8046 19.5193 12.8385 20.5811 12.8043 21.8862C12.7701 23.1912 11.6807 24.2529 10.3756 24.2529ZM31.5818 24.2529C30.2768 24.2529 29.2429 23.1912 29.277 21.8862C29.3111 20.5811 30.4007 19.5193 31.7057 19.5193C33.0108 19.5193 34.0447 20.5811 34.0105 21.8862C33.9763 23.1912 32.8868 24.2529 31.5818 24.2529ZM37.5328 19.8264C37.4835 20.3723 36.9815 20.8336 36.4365 20.8336H35.7996C35.378 18.9919 33.7411 17.6259 31.7552 17.6259C29.7693 17.6259 28.061 18.9919 27.543 20.8336H27.348C27.1074 20.8336 26.8927 20.7432 26.7432 20.5792C26.5928 20.4142 26.522 20.1899 26.5438 19.9472L27.7375 6.72263L30.4791 6.7232L30.0445 11.5374C29.975 12.3077 30.213 13.0351 30.7151 13.5857C31.2161 14.1354 31.916 14.4382 32.6855 14.4382H38.019L37.5328 19.8262L37.5328 19.8264Z" fill="#F89D16"/>
</svg>
