<svg width="24" height="24" viewBox="0 0 24 24" fill="none" xmlns="http://www.w3.org/2000/svg">
<path d="M4 13C4.6 13 5 12.6 5 12C5 11.4 4.6 11 4 11C3.4 11 3 11.4 3 12C3 12.6 3.5 13 4 13ZM4 17C4.6 17 5 16.5 5 16C5 15.5 4.6 15 4 15C3.4 15 3 15.4 3 16C3 16.5 3.5 17 4 17ZM4 9C4.6 9 5 8.6 5 8C5 7.4 4.6 7 4 7C3.4 7 3 7.4 3 8C3 8.6 3.5 9 4 9ZM8 13H20C20.5 13 21 12.6 21 12C21 11.4 20.5 11 20 11H8C7.4 11 7 11.4 7 12C7 12.6 7.4 13 8 13ZM8 17H20C20.5 17 21 16.5 21 16C21 15.5 20.5 15 20 15H8C7.4 15 7 15.4 7 16C7 16.5 7.4 17 8 17ZM7 8C7 8.6 7.4 9 8 9H20C20.5 9 21 8.6 21 8C21 7.4 20.5 7 20 7H8C7.4 7 7 7.4 7 8ZM4 13C4.6 13 5 12.6 5 12C5 11.4 4.6 11 4 11C3.4 11 3 11.4 3 12C3 12.6 3.5 13 4 13ZM4 17C4.6 17 5 16.5 5 16C5 15.5 4.6 15 4 15C3.4 15 3 15.4 3 16C3 16.5 3.5 17 4 17ZM4 9C4.6 9 5 8.6 5 8C5 7.4 4.6 7 4 7C3.4 7 3 7.4 3 8C3 8.6 3.5 9 4 9ZM8 13H20C20.5 13 21 12.6 21 12C21 11.4 20.5 11 20 11H8C7.4 11 7 11.4 7 12C7 12.6 7.4 13 8 13ZM8 17H20C20.5 17 21 16.5 21 16C21 15.5 20.5 15 20 15H8C7.4 15 7 15.4 7 16C7 16.5 7.4 17 8 17ZM7 8C7 8.6 7.4 9 8 9H20C20.5 9 21 8.6 21 8C21 7.4 20.5 7 20 7H8C7.4 7 7 7.4 7 8Z" fill="#3F4E5D" fill-opacity="0.6"/>
</svg>
