<svg width="24" height="24" viewBox="0 0 24 24" fill="none" xmlns="http://www.w3.org/2000/svg">
<path fill-rule="evenodd" clip-rule="evenodd" d="M8.59199 4.17603H9.40799V4.77603H8.59199V4.17603V4.17603ZM7.24799 4.17603V4.77603H8.06399V4.17603H7.24799Z" fill="#F6731C"/>
<path fill-rule="evenodd" clip-rule="evenodd" d="M15.744 7.99194H16.536V8.59194H15.744V7.99194ZM14.376 7.99194V8.59194H15.168V7.99194H14.376Z" fill="#F6731C"/>
<path fill-rule="evenodd" clip-rule="evenodd" d="M9.14398 22.2959C9.14398 22.4639 9.28798 22.6079 9.45598 22.6079C9.62398 22.6079 9.74398 22.4639 9.74398 22.3199V20.3759L9.79198 20.3279C9.93598 20.1599 10.032 19.9439 10.032 19.7279V19.3199C10.032 19.1519 9.98398 19.0079 9.88798 18.8639C9.88798 18.8399 9.86398 18.8159 9.83998 18.7919C9.93598 18.7679 10.032 18.6959 10.104 18.6239C10.248 18.4559 10.344 18.2399 10.344 18.0239V17.6639C10.344 17.4479 10.248 17.2559 10.104 17.0879L10.68 16.5599C10.776 16.4639 10.848 16.3679 10.896 16.2719C10.944 16.1759 10.968 16.0559 10.968 15.9359V14.4479L11.448 13.7759C11.496 13.7039 11.544 13.6079 11.568 13.5359C11.5721 13.5194 11.5762 13.5037 11.5802 13.4884C11.5995 13.4145 11.616 13.3514 11.616 13.2719V6.64791C11.616 6.40791 11.544 6.21591 11.376 6.04791C11.232 5.90391 11.016 5.80791 10.8 5.80791V2.15991H5.80798V5.80791C5.59198 5.83191 5.42398 5.90391 5.27998 6.04791C5.13598 6.21591 5.03998 6.43191 5.03998 6.64791V13.2719C5.03998 13.3679 5.06398 13.4639 5.08798 13.4879C5.11198 13.5839 5.15998 13.6559 5.20798 13.7279L5.68798 14.3999V15.8879C5.68798 16.0079 5.71198 16.1039 5.75998 16.2239C5.80798 16.3439 5.87998 16.4399 5.97598 16.5119L6.59998 17.0639C6.45598 17.2079 6.38398 17.4239 6.38398 17.6159V17.9759C6.38398 18.2159 6.45598 18.4079 6.62398 18.5759C6.67198 18.6239 6.74398 18.6719 6.81598 18.7199C6.78251 18.7366 6.76071 18.765 6.74245 18.7888C6.73451 18.7992 6.72724 18.8086 6.71998 18.8159C6.62398 18.9839 6.55198 19.1519 6.55198 19.3439V19.7279C6.55198 19.9199 6.59998 20.1119 6.71998 20.2559C6.76798 20.3279 6.83998 20.3759 6.91198 20.4239V22.2959C6.91198 22.4639 7.05598 22.6079 7.22398 22.6079C7.39198 22.6079 7.53598 22.4639 7.53598 22.2959V20.0159L7.31998 19.9439C7.27198 19.9439 7.22398 19.8959 7.19998 19.8719C7.17598 19.8239 7.15198 19.7759 7.15198 19.7279V19.3439C7.15198 19.2719 7.17598 19.2239 7.19998 19.1999C7.22398 19.1759 7.27198 19.1519 7.31998 19.1279L7.51198 19.0559V18.2399H7.19998C7.15198 18.2399 7.07998 18.2159 7.05598 18.1919C7.00798 18.1439 6.98398 18.0959 6.98398 18.0239V17.6639C6.98398 17.5919 7.00798 17.5439 7.05598 17.4959C7.07998 17.4479 7.10398 17.4239 7.15198 17.4239L7.67998 17.2799L6.33598 16.0799C6.32398 16.0679 6.31798 16.0559 6.31198 16.0439C6.30598 16.0319 6.29998 16.0199 6.28798 16.0079C6.26398 15.9839 6.26398 15.9359 6.26398 15.9119V14.2319L5.66398 13.4159C5.66398 13.4039 5.65798 13.3919 5.65198 13.3799C5.64598 13.3679 5.63998 13.3559 5.63998 13.3439V6.64791C5.63998 6.57591 5.66398 6.52791 5.71198 6.47991C5.75998 6.43191 5.80798 6.40791 5.87998 6.40791H10.728C10.8 6.40791 10.848 6.43191 10.896 6.47991C10.944 6.52791 10.968 6.57591 10.968 6.64791V13.3199C10.968 13.3439 10.968 13.3679 10.944 13.3919L10.344 14.2319V15.9119C10.344 15.9359 10.344 15.9839 10.32 16.0079C10.32 16.0319 10.296 16.0559 10.272 16.0799L8.92798 17.3039L9.52798 17.3999C9.57598 17.4239 9.62398 17.4479 9.64798 17.4719C9.69598 17.5199 9.71998 17.5679 9.71998 17.6399V17.9999C9.71998 18.0719 9.69598 18.1199 9.64798 18.1679C9.59998 18.2159 9.55198 18.2399 9.47998 18.2399H9.11998V19.0559L9.28798 19.1279C9.32465 19.1279 9.34731 19.1559 9.36667 19.1798C9.37265 19.1872 9.37831 19.1942 9.38398 19.1999C9.40798 19.2239 9.43198 19.2719 9.43198 19.3199V19.7279C9.43198 19.7999 9.40798 19.8479 9.35998 19.8959C9.35998 19.9199 9.33598 19.9439 9.31198 19.9439L9.14398 20.0159V22.2959ZM10.2 5.80791H6.40798V2.75991H10.2V5.80791Z" fill="#4D4D4D"/>
<path fill-rule="evenodd" clip-rule="evenodd" d="M12.168 19.9439C12.168 22.5359 15 22.6079 15.336 22.6079C16.992 22.6079 18.744 21.9119 18.744 19.9439V10.4639C18.744 10.2239 18.672 10.0319 18.504 9.86391C18.36 9.71991 18.144 9.62391 17.928 9.62391V5.97591H12.936V9.62391C12.72 9.64791 12.552 9.71991 12.408 9.86391C12.264 10.0319 12.168 10.2479 12.168 10.4639V19.9439ZM12.84 10.2959C12.888 10.2479 12.936 10.2239 13.008 10.2239H17.904C17.976 10.2239 18.024 10.2479 18.072 10.2959C18.12 10.3439 18.144 10.3919 18.144 10.4639V19.9439C18.144 21.8639 15.984 22.0079 15.336 22.0079C14.904 22.0079 12.768 21.9119 12.768 19.9439V10.4639C12.768 10.3919 12.792 10.3439 12.84 10.2959ZM17.328 9.62391H13.536V6.57591H17.328V9.62391Z" fill="#4D4D4D"/>
</svg>
