<svg width="13" height="15" viewBox="0 0 13 15" fill="none" xmlns="http://www.w3.org/2000/svg">
<path d="M6.5 14.3494C6.28457 14.3497 6.07272 14.2943 5.885 14.1886L0.634938 11.2212C0.442359 11.1121 0.282139 10.9539 0.170602 10.7628C0.0590656 10.5716 0.000198925 10.3543 0 10.133V4.21646C0.000197271 3.99514 0.0590572 3.77784 0.170583 3.58668C0.282108 3.39553 0.442313 3.23735 0.634875 3.12827L5.88487 0.16083C6.07273 0.0553826 6.28454 0 6.49997 0C6.7154 0 6.92721 0.0553826 7.11506 0.16083L12.3651 3.12821C12.5576 3.23729 12.7179 3.39547 12.8294 3.58664C12.9409 3.77781 12.9998 3.99513 13 4.21646V10.133C12.9998 10.3543 12.9409 10.5716 12.8294 10.7627C12.7179 10.9539 12.5577 11.1121 12.3651 11.2211L7.11512 14.1886C6.92736 14.2943 6.71547 14.3497 6.5 14.3494ZM1.5 9.98714L6.5 12.8132L11.5 9.98721V4.36221L6.5 1.53614L1.5 4.36221V9.98714Z" fill="#F89D16"/>
</svg>
