<svg width="24" height="25" viewBox="0 0 24 25" fill="none" xmlns="http://www.w3.org/2000/svg">
<path d="M12.024 23.1559C11.304 23.1559 9.64799 23.0599 9.14399 22.8919C8.83199 22.7959 8.47199 22.6519 8.37599 22.1959C8.35199 22.1239 8.35199 22.0279 8.35199 21.8359C8.35199 21.2119 8.35199 19.7719 7.48799 19.0999C7.17599 18.8599 6.91199 18.5239 6.74399 18.1639C6.69599 18.0919 6.67199 18.0199 6.64799 17.9719C6.62399 17.9479 6.62399 17.8999 6.62399 17.8759C6.50399 17.5639 6.45599 17.2279 6.45599 16.8679V8.22794C6.45599 7.84394 6.52799 7.50794 6.64799 7.19594C6.64799 7.17194 6.64799 7.17194 6.67199 7.14794C6.67199 7.14794 6.67199 7.14794 6.67199 7.12394C6.86399 6.66794 7.15199 6.28394 7.46399 5.87594C7.51199 5.82794 7.55999 5.75594 7.60799 5.70794C7.99199 5.25194 8.37599 4.77194 8.37599 2.94794C8.37599 2.39594 8.95199 2.20394 9.16799 2.15594C9.74399 1.98794 11.424 1.93994 12.024 1.93994C12.624 1.93994 14.304 1.98794 14.904 2.15594C15.12 2.22794 15.696 2.39594 15.696 2.94794C15.696 4.77194 16.08 5.25194 16.464 5.70794C16.512 5.75594 16.56 5.82794 16.608 5.87594C16.92 6.28394 17.232 6.66794 17.424 7.12394C17.424 7.14794 17.448 7.14794 17.448 7.17194C17.568 7.48394 17.64 7.81994 17.64 8.20394V8.63594H17.832C18 8.63594 18.144 8.77994 18.144 8.94794V11.3479C18.144 11.5159 18 11.6599 17.832 11.6599H17.64V16.8919C17.64 17.2519 17.568 17.5879 17.472 17.8999C17.472 17.9479 17.472 17.9719 17.448 18.0199C17.424 18.0919 17.4 18.1399 17.352 18.1879C17.184 18.5479 16.92 18.8839 16.608 19.1239C15.744 19.8199 15.744 21.2359 15.744 21.8599C15.744 22.0519 15.744 22.1479 15.72 22.2199C15.624 22.6999 15.216 22.8199 14.952 22.9159C14.472 23.0359 12.672 23.1559 12.024 23.1559ZM8.20799 18.9559C8.95199 19.8679 8.95199 21.2119 8.95199 21.8359C8.95199 21.9319 8.95199 22.0519 8.95199 22.0759C8.97599 22.1719 9.02399 22.2439 9.31199 22.3159C9.71999 22.4359 11.256 22.5319 12.024 22.5319C12.744 22.5319 14.4 22.4119 14.712 22.3159C15.024 22.2199 15.072 22.1719 15.072 22.0519C15.072 22.0279 15.072 21.9079 15.072 21.8119C15.072 21.1879 15.072 19.8439 15.816 18.9559C15.696 18.9799 15.552 18.9799 15.384 18.9799H8.66399C8.49599 18.9799 8.35199 18.9799 8.20799 18.9559ZM7.27199 17.8519C7.41599 18.0679 7.77599 18.3799 8.66399 18.3799H15.384C16.344 18.3799 16.632 18.1399 16.776 17.8759C16.92 17.5639 17.016 17.2039 17.016 16.8439V8.20394C17.016 7.89194 16.968 7.62794 16.872 7.38794L16.848 7.33994C16.656 7.00394 16.464 6.69194 15.384 6.69194H8.66399C7.91999 6.69194 7.41599 6.93194 7.19999 7.36394C7.10399 7.60394 7.05599 7.86794 7.05599 8.17994V16.8199C7.05599 17.2039 7.12799 17.5399 7.27199 17.8519ZM12.024 2.51594C11.16 2.51594 9.76799 2.56394 9.33599 2.70794C8.97599 2.82794 8.97599 2.89994 8.97599 2.92394C8.97599 4.96394 8.49599 5.53994 8.08799 6.06794C8.06399 6.09194 8.03999 6.13994 8.01599 6.16394C8.20799 6.11594 8.42399 6.09194 8.68799 6.09194H15.408C15.672 6.09194 15.888 6.11594 16.08 6.13994C16.056 6.11594 16.032 6.09194 16.008 6.04394C15.6 5.51594 15.12 4.93994 15.12 2.89994C15.12 2.87594 15.12 2.77994 14.76 2.68394C14.304 2.56394 12.888 2.51594 12.024 2.51594Z" fill="#4D4D4D"/>
<path d="M12.024 12.7161C11.976 12.7161 11.952 12.6921 11.904 12.6681L10.224 11.2281C10.152 11.1561 10.128 11.0601 10.2 10.9641C10.272 10.8921 10.368 10.8921 10.464 10.9401L12.048 12.2841L15.048 10.4361C15.144 10.3881 15.24 10.4121 15.288 10.4841C15.336 10.5801 15.312 10.6761 15.24 10.7241L12.12 12.6441C12.096 12.6921 12.072 12.7161 12.024 12.7161Z" fill="#F6731C"/>
</svg>
